<svg xmlns="http://www.w3.org/2000/svg" width="100" height="100" viewBox="0 0 100 100"><path fill="#fff" d="M64.6 29.6a14.4 14.4 0 0 1 .1 1.8 22.5 22.5 0 0 1-.8 5.8 16.3 16.3 0 0 1-1.1 3.1A13.9 13.9 0 0 0 70.9 51 21.5 21.5 0 0 1 81 69.3a21 21 0 0 1-.6 5.1 17.2 17.2 0 0 1-1.4 4 13.3 13.3 0 0 1 3.3 8.8c0 .5-.4 2.2-.6 3.4a2.2 2.2 0 0 1-1.1 1.8l-.9.2H75l-2.2-.2-2.1-.2a2 2 0 0 1-.7-1.6 2.2 2.2 0 0 1 1.4-2 1.9 1.9 0 0 0 .1-.8v-.5a3.2 3.2 0 0 0-3.1-2.6h-.1c0 .4.1.9.1 1.3a16.5 16.5 0 0 1-.4 3.2l-.5 1.7-.2.4c-.1.2-.1.3-.2.4a2.9 2.9 0 0 1 .2.9 2 2 0 0 1-2 2 60.5 60.5 0 0 1-8.5-.6c-1.2-.2-.2-4.6-.2-5.2a9.2 9.2 0 0 0 .1-1.6v-1a15.7 15.7 0 0 0-.4-2.3 12.9 12.9 0 0 0-8-9.1 3.6 3.6 0 0 0-1.3.8 13.6 13.6 0 0 0-4.5 6.7A11.4 11.4 0 0 0 42 86c.3 3.9 1.9 8 .1 8.3l-1.4.2h-4.8l-1.9-.1-2-.2c-.4-.1-.8-1-.8-1.6s.1-.3.1-.4a1.7 1.7 0 0 1 1.3-1.5c.7 0 .9-.5.8-.7s-.9-2.3-1.3-3.4-.7-2.5-1-3.8a35.5 35.5 0 0 1-.8-7.3c0-.7.1-1.4.1-2.1a35.6 35.6 0 0 1 3.3-13 10.2 10.2 0 0 0 1-2.1 8.8 8.8 0 0 0 .6-2.8 8.5 8.5 0 0 0-1.5-4.8 20.4 20.4 0 0 1-3.9-2.6l-.9-.7a21.6 21.6 0 0 1-5.7-8.5 7.8 7.8 0 0 1-2.2-1.2 8.3 8.3 0 0 1-3.4-6.6 8.4 8.4 0 0 1 3.4-6.8 7.2 7.2 0 0 1 2.5-1.3 4.5 4.5 0 0 1 1.6-.3 5.5 5.5 0 0 0 2.9-.9 1.9 1.9 0 0 1-1.5-1.9 2 2 0 0 1 2-2 2.1 2.1 0 0 1 1.7.8c0-.3.1-.7.1-1.1a11.8 11.8 0 0 0-.4-2v-.2a1.8 1.8 0 0 1 .8-1.5 20.8 20.8 0 0 1 9.6-3.9 6.7 6.7 0 0 1 1.3-2A8 8 0 0 1 46 5.4a3 3 0 0 1 2 2.9 3.1 3.1 0 0 1-.6 1.9 15.9 15.9 0 0 1 3.3.9 11.9 11.9 0 0 0 3.3-.4l1.1-.7a37.5 37.5 0 0 1 6.5-2.8A32.9 32.9 0 0 1 72 5.5l3.5.2a8.4 8.4 0 0 1 1.6 4.9 8.2 8.2 0 0 1-8.1 8.3h-.3a4.9 4.9 0 0 1 1.1 3.1 6.8 6.8 0 0 1-.2 1.4 5.3 5.3 0 0 1-1.3 2.3 5.1 5.1 0 0 1-2.9 1.3h-1.1a10.1 10.1 0 0 1 .3 2.5"/><path fill="#231f20" d="M36.8 41.3a7.2 7.2 0 0 1-3.2-.8 6.8 6.8 0 0 1-3.1-2.7 12.6 12.6 0 0 1-1.7-5.6 2.5 2.5 0 1 0-5 0c0 .2-.1.4-.1.7a11.1 11.1 0 0 1-1.2 2.7l-.4.4a5.2 5.2 0 0 1-1 1.1 7.7 7.7 0 0 1-2.9-6 8.1 8.1 0 0 1 3.2-6.4 6.6 6.6 0 0 1 2.4-1.1 4 4 0 0 1 1.5-.3 6 6 0 0 0 3.1-1 5.7 5.7 0 0 0 2.3-3.3 5.9 5.9 0 0 0 .2-1.3 11.8 11.8 0 0 0-.4-2v-.2a1.6 1.6 0 0 1 .6-1.2 20.9 20.9 0 0 1 9.4-3.7h.3v-.3A5.2 5.2 0 0 1 42 8.5a7.7 7.7 0 0 1 3.8-2.4 2.6 2.6 0 0 1 1.6 2.4 2.4 2.4 0 0 1-.4 1.4l-.4.6.7.2 1.5.3a14 14 0 0 0-8.3 6.6l-.6 1.2 1.2-.5 1.6-.2a4.2 4.2 0 0 1 2.4.7 4.5 4.5 0 0 1 2.1 3.1c0 .3.1.5.1.8a4.6 4.6 0 0 1-1.1 2.9 4.6 4.6 0 0 1-3.5 1.6h-1.2l.8.9a11.4 11.4 0 0 1 1.5 2.3 8 8 0 0 1 .6 3 8.8 8.8 0 0 1-.2 1.6 7.6 7.6 0 0 1-6.6 6.2z"/><path fill="#fff" d="M45.9 6.4A2.1 2.1 0 0 1 47 8.3a2 2 0 0 1-.4 1.3l-.9 1.3 1.3.2a13.6 13.6 0 0 0-6.9 6.3l-1.3 2.3 2.5-.9a3.2 3.2 0 0 1 1.4-.2 3.9 3.9 0 0 1 2.1.6 4 4 0 0 1 1.9 2.8c0 .2.1.4.1.7a4.4 4.4 0 0 1-1 2.6 4 4 0 0 1-3.1 1.4h-2.3l1.5 1.7a7.4 7.4 0 0 1 1.4 2.2 7.1 7.1 0 0 1 .6 2.8 7.7 7.7 0 0 1-.2 1.5 7.1 7.1 0 0 1-6.2 5.8h-.7a8.2 8.2 0 0 1-3-.7 7.3 7.3 0 0 1-2.9-2.6 12.1 12.1 0 0 1-1.6-5.3 2.9 2.9 0 0 0-3-3 3.1 3.1 0 0 0-3 2.9c0 .2-.1.5-.1.7a8 8 0 0 1-1.1 2.5l-.4.4-.6.7a7 7 0 0 1-2.4-5.3 7.4 7.4 0 0 1 3-6 7.6 7.6 0 0 1 2.2-1.1l1.4-.2a6 6 0 0 0 3.4-1.1h.1a6.6 6.6 0 0 0 2.4-3.6 5.9 5.9 0 0 0 .2-1.4 11.2 11.2 0 0 0-.4-2.1 1.2 1.2 0 0 1 .4-.8 20 20 0 0 1 9.2-3.7h.6l.2-.7a5.7 5.7 0 0 1 1.1-1.6 7.7 7.7 0 0 1 3.4-2.2m.1-1A8 8 0 0 0 41.7 8a6.7 6.7 0 0 0-1.3 2 20.8 20.8 0 0 0-9.6 3.9 1.8 1.8 0 0 0-.8 1.5v.2a11.8 11.8 0 0 1 .4 2c0 .4-.1.8-.1 1.1a6 6 0 0 1-2.2 3.1 5.5 5.5 0 0 1-2.9.9 4.5 4.5 0 0 0-1.6.3 7.2 7.2 0 0 0-2.5 1.2 8.4 8.4 0 0 0-3.4 6.8 8.3 8.3 0 0 0 3.4 6.6 9.3 9.3 0 0 0 1.4-1.4l.4-.4a9.5 9.5 0 0 0 1.3-2.8c0-.3.1-.5.1-.8a2 2 0 1 1 4 0 14.9 14.9 0 0 0 1.7 5.9 9.6 9.6 0 0 0 3.4 2.9 7.7 7.7 0 0 0 3.4.8h.8a8.2 8.2 0 0 0 7.1-6.6 9.9 9.9 0 0 0 .2-1.7 7.8 7.8 0 0 0-.7-3.1 8.4 8.4 0 0 0-1.5-2.6 5 5 0 0 0 3.9-1.8 5.3 5.3 0 0 0 1.2-3.2c0-.3-.1-.6-.1-.9a5.4 5.4 0 0 0-2.3-3.5 6 6 0 0 0-2.7-.7 4.7 4.7 0 0 0-1.7.3 13.1 13.1 0 0 1 9.7-6.8 15.9 15.9 0 0 0-3.3-.9 3.1 3.1 0 0 0 .6-2 3 3 0 0 0-2-2.9z"/><path fill="#fff" d="M43.5 20.8a2.2 2.2 0 0 1 1.2 1.9 2 2 0 0 1-2 2 2.1 2.1 0 0 1-1.2-.4 2.1 2.1 0 0 1-.8-1.6 2 2 0 0 1 2-2.1l.8.2"/><path fill="#231f20" d="M37.6 94.1h-1.7l-1.9-.2-1.9-.2a1.9 1.9 0 0 1-.4-1.1.4.4 0 0 1 .1-.3c.1-.8.5-1.1.9-1.1a1.7 1.7 0 0 0 1.1-.6.8.8 0 0 0 .1-.8l-.3-.7a36.8 36.8 0 0 1-.6-6.6 34.4 34.4 0 0 1 12.9-26.7 34.3 34.3 0 0 1 16 29.2 38 38 0 0 1-1.1 8.9l-3.9-.4c-.1-.1-.5-.5.2-4.2v-.5a8.6 8.6 0 0 0 .1-1.6v-1a21.7 21.7 0 0 0-.4-2.5 13.4 13.4 0 0 0-8.3-9.3h-.4a3 3 0 0 0-1.4.8 13.6 13.6 0 0 0-4.7 6.9 10.5 10.5 0 0 0-.5 4c.1 1.2.3 2.5.5 3.7s.7 3.3.3 3.8-.1.2-.3.2h-4.4z"/><path fill="#fff" d="M45.9 56.5a34.3 34.3 0 0 1 14.5 36.9l-3.1-.4a9.2 9.2 0 0 1 .2-3.6 1.1 1.1 0 0 0 .1-.5 10.3 10.3 0 0 0 .1-1.7v-1a20.2 20.2 0 0 0-.4-2.6 14 14 0 0 0-8.6-9.7h-.8a3.5 3.5 0 0 0-1.5.9 13.9 13.9 0 0 0-4.9 7.2 11 11 0 0 0-.5 4.1c.1 1.3.3 2.6.5 3.8a9.1 9.1 0 0 1 .4 3.4H36l-1.9-.2-1.7-.2a1.1 1.1 0 0 1-.2-.6c0-.1 0-.2.1-.2s.3-.7.4-.7a2.2 2.2 0 0 0 1.5-.8 1.2 1.2 0 0 0 .1-1.3l-.3-.7a44.8 44.8 0 0 1-.5-6.4 33.8 33.8 0 0 1 12.4-26m0-1.3a34.6 34.6 0 0 0-13.4 27.6 36.3 36.3 0 0 0 .6 6.7l.3.8c.1.2-.1.7-.8.7a1.7 1.7 0 0 0-1.3 1.5c0 .1-.1.2-.1.4s.4 1.5.8 1.6l2 .2 1.9.2h4.8l1.4-.2c1.8-.3.2-4.4-.1-8.3a11.4 11.4 0 0 1 .5-3.7 13.6 13.6 0 0 1 4.5-6.8 3.6 3.6 0 0 1 1.3-.8 12.9 12.9 0 0 1 8 9.1 15.7 15.7 0 0 1 .4 2.3v1a9.2 9.2 0 0 1-.1 1.6c0 .6-1 5 .2 5.2l4.4.4a36.1 36.1 0 0 0 1.2-9.4 34.6 34.6 0 0 0-16.5-29.8zM28.2 25a1.5 1.5 0 0 1 1.2 1.5c-.1 1.4-2 1.7-2.6 1.6s-2.5-.7-2.4-2a1.5 1.5 0 0 1 1.5-1.3z"/></svg>