<svg xmlns="http://www.w3.org/2000/svg"><symbol id="fdr-logo-black" viewBox="0 0 100 100"><path d="M64.6 29.6a14.4 14.4 0 0 1 .1 1.8 22.5 22.5 0 0 1-.8 5.8 16.3 16.3 0 0 1-1.1 3.1A13.9 13.9 0 0 0 70.9 51 21.5 21.5 0 0 1 81 69.3a21 21 0 0 1-.6 5.1 17.2 17.2 0 0 1-1.4 4 13.3 13.3 0 0 1 3.3 8.8c0 .5-.4 2.2-.6 3.4a2.2 2.2 0 0 1-1.1 1.8l-.9.2H75l-2.2-.2-2.1-.2a2 2 0 0 1-.7-1.6 2.2 2.2 0 0 1 1.4-2 1.9 1.9 0 0 0 .1-.8v-.5a3.2 3.2 0 0 0-3.1-2.6h-.1c0 .4.1.9.1 1.3a16.5 16.5 0 0 1-.4 3.2l-.5 1.7-.2.4c-.1.2-.1.3-.2.4a2.9 2.9 0 0 1 .2.9 2 2 0 0 1-2 2 60.5 60.5 0 0 1-8.5-.6c-1.2-.2-.2-4.6-.2-5.2a9.2 9.2 0 0 0 .1-1.6v-1a15.7 15.7 0 0 0-.4-2.3 12.9 12.9 0 0 0-8-9.1 3.6 3.6 0 0 0-1.3.8 13.6 13.6 0 0 0-4.5 6.7A11.4 11.4 0 0 0 42 86c.3 3.9 1.9 8 .1 8.3l-1.4.2h-4.8l-1.9-.1-2-.2c-.4-.1-.8-1-.8-1.6s.1-.3.1-.4a1.7 1.7 0 0 1 1.3-1.5c.7 0 .9-.5.8-.7s-.9-2.3-1.3-3.4-.7-2.5-1-3.8a35.5 35.5 0 0 1-.8-7.3c0-.7.1-1.4.1-2.1a35.6 35.6 0 0 1 3.3-13 10.2 10.2 0 0 0 1-2.1 8.8 8.8 0 0 0 .6-2.8 8.5 8.5 0 0 0-1.5-4.8 20.4 20.4 0 0 1-3.9-2.6l-.9-.7a21.6 21.6 0 0 1-5.7-8.5 7.8 7.8 0 0 1-2.2-1.2 8.3 8.3 0 0 1-3.4-6.6 8.4 8.4 0 0 1 3.4-6.8 7.2 7.2 0 0 1 2.5-1.3 4.5 4.5 0 0 1 1.6-.3 5.5 5.5 0 0 0 2.9-.9 1.9 1.9 0 0 1-1.5-1.9 2 2 0 0 1 2-2 2.1 2.1 0 0 1 1.7.8c0-.3.1-.7.1-1.1a11.8 11.8 0 0 0-.4-2v-.2a1.8 1.8 0 0 1 .8-1.5 20.8 20.8 0 0 1 9.6-3.9 6.7 6.7 0 0 1 1.3-2A8 8 0 0 1 46 5.4a3 3 0 0 1 2 2.9 3.1 3.1 0 0 1-.6 1.9 15.9 15.9 0 0 1 3.3.9 11.9 11.9 0 0 0 3.3-.4l1.1-.7a37.5 37.5 0 0 1 6.5-2.8A32.9 32.9 0 0 1 72 5.5l3.5.2a8.4 8.4 0 0 1 1.6 4.9 8.2 8.2 0 0 1-8.1 8.3h-.3a4.9 4.9 0 0 1 1.1 3.1 6.8 6.8 0 0 1-.2 1.4 5.3 5.3 0 0 1-1.3 2.3 5.1 5.1 0 0 1-2.9 1.3h-1.1a10.1 10.1 0 0 1 .3 2.5"/><path fill="#fff" d="M50.7 11.1a13.1 13.1 0 0 0-9.7 6.8 4.7 4.7 0 0 1 1.7-.3 6 6 0 0 1 2.7.7 5.4 5.4 0 0 1 2.3 3.5c0 .3.1.6.1.9a5.3 5.3 0 0 1-1.2 3.2 5 5 0 0 1-3.9 1.8 8.4 8.4 0 0 1 1.5 2.6 7.8 7.8 0 0 1 .7 3.1 9.9 9.9 0 0 1-.2 1.7 8.2 8.2 0 0 1-7.1 6.6h-.8a7.7 7.7 0 0 1-3.4-.8 9.6 9.6 0 0 1-3.4-2.8 14.9 14.9 0 0 1-1.7-5.9 2 2 0 1 0-4 0c0 .3-.1.5-.1.8a9.5 9.5 0 0 1-1.3 2.9l-.4.4a9.3 9.3 0 0 1-1.4 1.4 8.3 8.3 0 0 1-3.4-6.6 8.4 8.4 0 0 1 3.4-6.8 7.2 7.2 0 0 1 2.5-1.3 4.5 4.5 0 0 1 1.6-.3 5.5 5.5 0 0 0 2.9-.9 6 6 0 0 0 2.2-3.1c0-.3.1-.7.1-1.1a11.8 11.8 0 0 0-.4-2v-.2a1.8 1.8 0 0 1 .8-1.5 20.8 20.8 0 0 1 9.6-3.9 6.7 6.7 0 0 1 1.3-2A8 8 0 0 1 46 5.4a3 3 0 0 1 2 2.9 3.1 3.1 0 0 1-.6 1.9 15.9 15.9 0 0 1 3.3.9z"/><path d="M43.5 20.8a2.2 2.2 0 0 1 1.2 1.9 2 2 0 0 1-2 2 2.1 2.1 0 0 1-1.2-.4 2.1 2.1 0 0 1-.8-1.6 2 2 0 0 1 2-2.1l.8.2"/><path fill="#fff" d="M33.1 89.2l.3.8c.1.2-.1.7-.8.7a1.7 1.7 0 0 0-1.3 1.5c0 .1-.1.2-.1.4s.4 1.5.8 1.6l2 .2 1.9.2h4.8l1.4-.2c1.8-.3.2-4.4-.1-8.3a11.4 11.4 0 0 1 .5-3.7 13.6 13.6 0 0 1 4.5-6.8 3.6 3.6 0 0 1 1.3-.8 12.9 12.9 0 0 1 8 9.1 15.7 15.7 0 0 1 .4 2.3v1a9.2 9.2 0 0 1-.1 1.6c0 .6-1 5 .2 5.2l4.4.4a36.1 36.1 0 0 0 1.2-9.4 34.6 34.6 0 0 0-16.5-29.8 34.6 34.6 0 0 0-13.4 27.3 36.3 36.3 0 0 0 .6 6.7z"/><path d="M28.2 25a1.5 1.5 0 0 1 1.2 1.5c-.1 1.4-2 1.7-2.6 1.6s-2.5-.7-2.4-2a1.5 1.5 0 0 1 1.5-1.3z"/></symbol><symbol id="fdr-logo-white" viewBox="0 0 100 100"><path d="M64.6 29.6a14.4 14.4 0 0 1 .1 1.8 22.5 22.5 0 0 1-.8 5.8 16.3 16.3 0 0 1-1.1 3.1A13.9 13.9 0 0 0 70.9 51 21.5 21.5 0 0 1 81 69.3a21 21 0 0 1-.6 5.1 17.2 17.2 0 0 1-1.4 4 13.3 13.3 0 0 1 3.3 8.8c0 .5-.4 2.2-.6 3.4a2.2 2.2 0 0 1-1.1 1.8l-.9.2H75l-2.2-.2-2.1-.2a2 2 0 0 1-.7-1.6 2.2 2.2 0 0 1 1.4-2 1.9 1.9 0 0 0 .1-.8v-.5a3.2 3.2 0 0 0-3.1-2.6h-.1c0 .4.1.9.1 1.3a16.5 16.5 0 0 1-.4 3.2l-.5 1.7-.2.4c-.1.2-.1.3-.2.4a2.9 2.9 0 0 1 .2.9 2 2 0 0 1-2 2 60.5 60.5 0 0 1-8.5-.6c-1.2-.2-.2-4.6-.2-5.2a9.2 9.2 0 0 0 .1-1.6v-1a15.7 15.7 0 0 0-.4-2.3 12.9 12.9 0 0 0-8-9.1 3.6 3.6 0 0 0-1.3.8 13.6 13.6 0 0 0-4.5 6.7A11.4 11.4 0 0 0 42 86c.3 3.9 1.9 8 .1 8.3l-1.4.2h-4.8l-1.9-.1-2-.2c-.4-.1-.8-1-.8-1.6s.1-.3.1-.4a1.7 1.7 0 0 1 1.3-1.5c.7 0 .9-.5.8-.7s-.9-2.3-1.3-3.4-.7-2.5-1-3.8a35.5 35.5 0 0 1-.8-7.3c0-.7.1-1.4.1-2.1a35.6 35.6 0 0 1 3.3-13 10.2 10.2 0 0 0 1-2.1 8.8 8.8 0 0 0 .6-2.8 8.5 8.5 0 0 0-1.5-4.8 20.4 20.4 0 0 1-3.9-2.6l-.9-.7a21.6 21.6 0 0 1-5.7-8.5 7.8 7.8 0 0 1-2.2-1.2 8.3 8.3 0 0 1-3.4-6.6 8.4 8.4 0 0 1 3.4-6.8 7.2 7.2 0 0 1 2.5-1.3 4.5 4.5 0 0 1 1.6-.3 5.5 5.5 0 0 0 2.9-.9 1.9 1.9 0 0 1-1.5-1.9 2 2 0 0 1 2-2 2.1 2.1 0 0 1 1.7.8c0-.3.1-.7.1-1.1a11.8 11.8 0 0 0-.4-2v-.2a1.8 1.8 0 0 1 .8-1.5 20.8 20.8 0 0 1 9.6-3.9 6.7 6.7 0 0 1 1.3-2A8 8 0 0 1 46 5.4a3 3 0 0 1 2 2.9 3.1 3.1 0 0 1-.6 1.9 15.9 15.9 0 0 1 3.3.9 11.9 11.9 0 0 0 3.3-.4l1.1-.7a37.5 37.5 0 0 1 6.5-2.8A32.9 32.9 0 0 1 72 5.5l3.5.2a8.4 8.4 0 0 1 1.6 4.9 8.2 8.2 0 0 1-8.1 8.3h-.3a4.9 4.9 0 0 1 1.1 3.1 6.8 6.8 0 0 1-.2 1.4 5.3 5.3 0 0 1-1.3 2.3 5.1 5.1 0 0 1-2.9 1.3h-1.1a10.1 10.1 0 0 1 .3 2.5M40.9 17.9"/></symbol><symbol id="fdr-logo-white" viewBox="0 0 100 100"><path d="M64.6 29.6a14.4 14.4 0 0 1 .1 1.8 22.5 22.5 0 0 1-.8 5.8 16.3 16.3 0 0 1-1.1 3.1A13.9 13.9 0 0 0 70.9 51 21.5 21.5 0 0 1 81 69.3a21 21 0 0 1-.6 5.1 17.2 17.2 0 0 1-1.4 4 13.3 13.3 0 0 1 3.3 8.8c0 .5-.4 2.2-.6 3.4a2.2 2.2 0 0 1-1.1 1.8l-.9.2H75l-2.2-.2-2.1-.2a2 2 0 0 1-.7-1.6 2.2 2.2 0 0 1 1.4-2 1.9 1.9 0 0 0 .1-.8v-.5a3.2 3.2 0 0 0-3.1-2.6h-.1c0 .4.1.9.1 1.3a16.5 16.5 0 0 1-.4 3.2l-.5 1.7-.2.4c-.1.2-.1.3-.2.4a2.9 2.9 0 0 1 .2.9 2 2 0 0 1-2 2 60.5 60.5 0 0 1-8.5-.6c-1.2-.2-.2-4.6-.2-5.2a9.2 9.2 0 0 0 .1-1.6v-1a15.7 15.7 0 0 0-.4-2.3 12.9 12.9 0 0 0-8-9.1 3.6 3.6 0 0 0-1.3.8 13.6 13.6 0 0 0-4.5 6.7A11.4 11.4 0 0 0 42 86c.3 3.9 1.9 8 .1 8.3l-1.4.2h-4.8l-1.9-.1-2-.2c-.4-.1-.8-1-.8-1.6s.1-.3.1-.4a1.7 1.7 0 0 1 1.3-1.5c.7 0 .9-.5.8-.7s-.9-2.3-1.3-3.4-.7-2.5-1-3.8a35.5 35.5 0 0 1-.8-7.3c0-.7.1-1.4.1-2.1a35.6 35.6 0 0 1 3.3-13 10.2 10.2 0 0 0 1-2.1 8.8 8.8 0 0 0 .6-2.8 8.5 8.5 0 0 0-1.5-4.8 20.4 20.4 0 0 1-3.9-2.6l-.9-.7a21.6 21.6 0 0 1-5.7-8.5 7.8 7.8 0 0 1-2.2-1.2 8.3 8.3 0 0 1-3.4-6.6 8.4 8.4 0 0 1 3.4-6.8 7.2 7.2 0 0 1 2.5-1.3 4.5 4.5 0 0 1 1.6-.3 5.5 5.5 0 0 0 2.9-.9 1.9 1.9 0 0 1-1.5-1.9 2 2 0 0 1 2-2 2.1 2.1 0 0 1 1.7.8c0-.3.1-.7.1-1.1a11.8 11.8 0 0 0-.4-2v-.2a1.8 1.8 0 0 1 .8-1.5 20.8 20.8 0 0 1 9.6-3.9 6.7 6.7 0 0 1 1.3-2A8 8 0 0 1 46 5.4a3 3 0 0 1 2 2.9 3.1 3.1 0 0 1-.6 1.9 15.9 15.9 0 0 1 3.3.9 11.9 11.9 0 0 0 3.3-.4l1.1-.7a37.5 37.5 0 0 1 6.5-2.8A32.9 32.9 0 0 1 72 5.5l3.5.2a8.4 8.4 0 0 1 1.6 4.9 8.2 8.2 0 0 1-8.1 8.3h-.3a4.9 4.9 0 0 1 1.1 3.1 6.8 6.8 0 0 1-.2 1.4 5.3 5.3 0 0 1-1.3 2.3 5.1 5.1 0 0 1-2.9 1.3h-1.1a10.1 10.1 0 0 1 .3 2.5M40.9 17.9"/></symbol><symbol id="fdr-logo-black" viewBox="0 0 100 100"><path d="M64.6 29.6a14.4 14.4 0 0 1 .1 1.8 22.5 22.5 0 0 1-.8 5.8 16.3 16.3 0 0 1-1.1 3.1A13.9 13.9 0 0 0 70.9 51 21.5 21.5 0 0 1 81 69.3a21 21 0 0 1-.6 5.1 17.2 17.2 0 0 1-1.4 4 13.3 13.3 0 0 1 3.3 8.8c0 .5-.4 2.2-.6 3.4a2.2 2.2 0 0 1-1.1 1.8l-.9.2H75l-2.2-.2-2.1-.2a2 2 0 0 1-.7-1.6 2.2 2.2 0 0 1 1.4-2 1.9 1.9 0 0 0 .1-.8v-.5a3.2 3.2 0 0 0-3.1-2.6h-.1c0 .4.1.9.1 1.3a16.5 16.5 0 0 1-.4 3.2l-.5 1.7-.2.4c-.1.2-.1.3-.2.4a2.9 2.9 0 0 1 .2.9 2 2 0 0 1-2 2 60.5 60.5 0 0 1-8.5-.6c-1.2-.2-.2-4.6-.2-5.2a9.2 9.2 0 0 0 .1-1.6v-1a15.7 15.7 0 0 0-.4-2.3 12.9 12.9 0 0 0-8-9.1 3.6 3.6 0 0 0-1.3.8 13.6 13.6 0 0 0-4.5 6.7A11.4 11.4 0 0 0 42 86c.3 3.9 1.9 8 .1 8.3l-1.4.2h-4.8l-1.9-.1-2-.2c-.4-.1-.8-1-.8-1.6s.1-.3.1-.4a1.7 1.7 0 0 1 1.3-1.5c.7 0 .9-.5.8-.7s-.9-2.3-1.3-3.4-.7-2.5-1-3.8a35.5 35.5 0 0 1-.8-7.3c0-.7.1-1.4.1-2.1a35.6 35.6 0 0 1 3.3-13 10.2 10.2 0 0 0 1-2.1 8.8 8.8 0 0 0 .6-2.8 8.5 8.5 0 0 0-1.5-4.8 20.4 20.4 0 0 1-3.9-2.6l-.9-.7a21.6 21.6 0 0 1-5.7-8.5 7.8 7.8 0 0 1-2.2-1.2 8.3 8.3 0 0 1-3.4-6.6 8.4 8.4 0 0 1 3.4-6.8 7.2 7.2 0 0 1 2.5-1.3 4.5 4.5 0 0 1 1.6-.3 5.5 5.5 0 0 0 2.9-.9 1.9 1.9 0 0 1-1.5-1.9 2 2 0 0 1 2-2 2.1 2.1 0 0 1 1.7.8c0-.3.1-.7.1-1.1a11.8 11.8 0 0 0-.4-2v-.2a1.8 1.8 0 0 1 .8-1.5 20.8 20.8 0 0 1 9.6-3.9 6.7 6.7 0 0 1 1.3-2A8 8 0 0 1 46 5.4a3 3 0 0 1 2 2.9 3.1 3.1 0 0 1-.6 1.9 15.9 15.9 0 0 1 3.3.9 11.9 11.9 0 0 0 3.3-.4l1.1-.7a37.5 37.5 0 0 1 6.5-2.8A32.9 32.9 0 0 1 72 5.5l3.5.2a8.4 8.4 0 0 1 1.6 4.9 8.2 8.2 0 0 1-8.1 8.3h-.3a4.9 4.9 0 0 1 1.1 3.1 6.8 6.8 0 0 1-.2 1.4 5.3 5.3 0 0 1-1.3 2.3 5.1 5.1 0 0 1-2.9 1.3h-1.1a10.1 10.1 0 0 1 .3 2.5"/><path fill="#fff" d="M50.7 11.1a13.1 13.1 0 0 0-9.7 6.8 4.7 4.7 0 0 1 1.7-.3 6 6 0 0 1 2.7.7 5.4 5.4 0 0 1 2.3 3.5c0 .3.1.6.1.9a5.3 5.3 0 0 1-1.2 3.2 5 5 0 0 1-3.9 1.8 8.4 8.4 0 0 1 1.5 2.6 7.8 7.8 0 0 1 .7 3.1 9.9 9.9 0 0 1-.2 1.7 8.2 8.2 0 0 1-7.1 6.6h-.8a7.7 7.7 0 0 1-3.4-.8 9.6 9.6 0 0 1-3.4-2.8 14.9 14.9 0 0 1-1.7-5.9 2 2 0 1 0-4 0c0 .3-.1.5-.1.8a9.5 9.5 0 0 1-1.3 2.9l-.4.4a9.3 9.3 0 0 1-1.4 1.4 8.3 8.3 0 0 1-3.4-6.6 8.4 8.4 0 0 1 3.4-6.8 7.2 7.2 0 0 1 2.5-1.3 4.5 4.5 0 0 1 1.6-.3 5.5 5.5 0 0 0 2.9-.9 6 6 0 0 0 2.2-3.1c0-.3.1-.7.1-1.1a11.8 11.8 0 0 0-.4-2v-.2a1.8 1.8 0 0 1 .8-1.5 20.8 20.8 0 0 1 9.6-3.9 6.7 6.7 0 0 1 1.3-2A8 8 0 0 1 46 5.4a3 3 0 0 1 2 2.9 3.1 3.1 0 0 1-.6 1.9 15.9 15.9 0 0 1 3.3.9z"/><path d="M43.5 20.8a2.2 2.2 0 0 1 1.2 1.9 2 2 0 0 1-2 2 2.1 2.1 0 0 1-1.2-.4 2.1 2.1 0 0 1-.8-1.6 2 2 0 0 1 2-2.1l.8.2"/><path fill="#fff" d="M33.1 89.2l.3.8c.1.2-.1.7-.8.7a1.7 1.7 0 0 0-1.3 1.5c0 .1-.1.2-.1.4s.4 1.5.8 1.6l2 .2 1.9.2h4.8l1.4-.2c1.8-.3.2-4.4-.1-8.3a11.4 11.4 0 0 1 .5-3.7 13.6 13.6 0 0 1 4.5-6.8 3.6 3.6 0 0 1 1.3-.8 12.9 12.9 0 0 1 8 9.1 15.7 15.7 0 0 1 .4 2.3v1a9.2 9.2 0 0 1-.1 1.6c0 .6-1 5 .2 5.2l4.4.4a36.1 36.1 0 0 0 1.2-9.4 34.6 34.6 0 0 0-16.5-29.8 34.6 34.6 0 0 0-13.4 27.3 36.3 36.3 0 0 0 .6 6.7z"/><path d="M28.2 25a1.5 1.5 0 0 1 1.2 1.5c-.1 1.4-2 1.7-2.6 1.6s-2.5-.7-2.4-2a1.5 1.5 0 0 1 1.5-1.3z"/></symbol></svg>