<svg xmlns="http://www.w3.org/2000/svg"><symbol id="expand" viewBox="0 0 256 256"><path d="M146.1 54.9h55v55h32.2V54.6a31.8 31.8 0 0 0-31.9-31.9h-55.3zm-91.2 55v-55h55V22.7H54.6a31.8 31.8 0 0 0-31.9 31.9v55.3zm146.2 36.2v55h-55v32.2h55.3a31.8 31.8 0 0 0 31.9-31.9v-55.3zm-91.2 55h-55v-55H22.7v55.3a31.8 31.8 0 0 0 31.9 31.9h55.3z"/></symbol><symbol id="facebook" viewBox="0 0 256 256"><path d="M227.7 206.3a21.5 21.5 0 0 1-21.4 21.4h-37.8v-78.8h26.7l4-30.2h-30.7V99.5c0-4.7.9-8.3 2.7-10.6s6.3-4.1 12-4.1h16V58.2a165.6 165.6 0 0 0-23.2-1.4q-17.7 0-28.2 10.5c-7 6.9-10.5 16.7-10.5 29.1v22.3h-27.1v30.2h27.1v78.8H49.7a20.4 20.4 0 0 1-15.1-6.3 20.4 20.4 0 0 1-6.3-15.1V49.7a20.4 20.4 0 0 1 6.3-15.1 20.4 20.4 0 0 1 15.1-6.3h156.6a20.4 20.4 0 0 1 15.1 6.3 20.4 20.4 0 0 1 6.3 15.1z"/></symbol><symbol id="instagram" viewBox="0 0 256 256"><path d="M227.2 86.6c.3 8.3.5 22.1.5 41.4s-.3 33.1-.7 41.6a85.2 85.2 0 0 1-3.8 22 51.6 51.6 0 0 1-31.6 31.6 85.2 85.2 0 0 1-22 3.8c-8.5.4-22.3.7-41.6.7s-33.1-.3-41.6-.7a76.8 76.8 0 0 1-22-4.2A48 48 0 0 1 45 211a52.4 52.4 0 0 1-12.2-19.4 85.2 85.2 0 0 1-3.8-22c-.4-8.5-.7-22.3-.7-41.6s.3-33.1.7-41.6a85.2 85.2 0 0 1 3.8-22 51.6 51.6 0 0 1 31.6-31.6 85.2 85.2 0 0 1 22-3.8c8.5-.4 22.3-.7 41.6-.7s33.1.3 41.6.7a85.2 85.2 0 0 1 22 3.8 51.6 51.6 0 0 1 31.6 31.6 89.1 89.1 0 0 1 4 22.2zm-21.3 100.1c1.7-5 2.9-13 3.5-24 .3-6.5.5-15.7.5-27.6v-14.2c0-12.2-.2-21.4-.5-27.6-.6-11.3-1.8-19.3-3.5-24a32.5 32.5 0 0 0-19.2-19.2c-4.7-1.7-12.7-2.9-24-3.5-6.5-.3-15.7-.5-27.6-.5h-14.2c-11.9 0-21.1.2-27.6.5-11 .6-19 1.8-24 3.5a32.5 32.5 0 0 0-19.2 19.2c-1.7 4.7-2.9 12.7-3.5 24-.3 6.5-.5 15.7-.5 27.6v14.2c0 11.9.2 21.1.5 27.6.6 11 1.8 19 3.5 24q5.9 13.8 19.2 19.2c5 1.7 13 2.9 24 3.5 6.5.3 15.7.5 27.6.5h14.2c12.2 0 21.4-.2 27.6-.5 11.3-.6 19.3-1.8 24-3.5q13.8-5.8 19.2-19.2zM128 76.8a49.9 49.9 0 0 1 25.6 6.9 52.4 52.4 0 0 1 18.7 18.7 50.9 50.9 0 0 1 0 51.2 52.4 52.4 0 0 1-18.7 18.7 50.9 50.9 0 0 1-51.2 0 52.4 52.4 0 0 1-18.7-18.7 50.9 50.9 0 0 1 0-51.2 52.4 52.4 0 0 1 18.7-18.7 49.9 49.9 0 0 1 25.6-6.9zm0 84.6a33.5 33.5 0 0 0 33.4-33.4A33.5 33.5 0 0 0 128 94.6 33.5 33.5 0 0 0 94.6 128a33.5 33.5 0 0 0 33.4 33.4zm65.4-86.8a12.3 12.3 0 0 0-12-12 12.1 12.1 0 0 0-12 12 12 12 0 0 0 12 12 11 11 0 0 0 8.2-3.5 14.1 14.1 0 0 0 3.8-8.5z"/></symbol><symbol id="hamburger" viewBox="0 0 256 256"><path d="M181.8 92H74.2a18 18 0 1 1 0-36h107.6a18 18 0 0 1 0 36zm0 54H74.2a18 18 0 1 1 0-36h107.6a18 18 0 0 1 0 36zm0 54H74.2a18 18 0 1 1 0-36h107.6a18 18 0 0 1 0 36z"/></symbol><symbol id="return" viewBox="0 0 256 256"><path d="M128 50.3A77.7 77.7 0 1 1 50.3 128 77.8 77.8 0 0 1 128 50.3m0-22a99.7 99.7 0 1 0 99.7 99.7A99.8 99.8 0 0 0 128 28.3z"/><path d="M169.5 118.1L128 76.6l-41.5 41.5 15.6 15.6 14.2-14.3v60h23.4v-60l14.2 14.3 15.6-15.6z"/></symbol><symbol id="share" viewBox="0 0 256 256"><path d="M184.9 153a40.2 40.2 0 0 0-30.3 13.7l-44.9-18.3a16.9 16.9 0 0 0 .1-2.3 38.5 38.5 0 0 0-1.8-11.9l48-35a40.2 40.2 0 1 0-17.2-32.9 42.8 42.8 0 0 0 1.8 11.9l-47.9 35a40.2 40.2 0 1 0-23.1 73.1 40.3 40.3 0 0 0 30.3-13.8l44.9 18.3a19.3 19.3 0 0 0-.1 2.4 40.2 40.2 0 1 0 40.2-40.2z"/></symbol><symbol id="comment" viewBox="0 0 256 256"><path d="M43.3 234.1a12.1 12.1 0 0 1-8.2-3.2 11.9 11.9 0 0 1-3.2-12.4l13.6-42.6c-12.3-13.8-19-30.6-19-47.9 0-22.5 11-43.5 30.8-59s44.1-23.1 70.7-23.1 51.7 8.2 70.7 23.1 30.8 36.5 30.8 59-11 43.5-30.8 59-44.1 23.1-70.7 23.1a127.3 127.3 0 0 1-18.6-1.3l-61.6 24.5a11.9 11.9 0 0 1-4.5.8zM128 69.9c-42.7 0-77.5 26-77.5 58.1 0 13.2 5.9 25.6 16.9 36a12.1 12.1 0 0 1 3.1 12.4l-8 25.2 41.1-16.4a12 12 0 0 1 6.5-.6 106.3 106.3 0 0 0 17.9 1.5c42.7 0 77.5-26 77.5-58.1S170.7 69.9 128 69.9z"/><circle cx="87.5" cy="126.9" r="17"/><circle cx="128" cy="126.9" r="17"/><circle cx="168.5" cy="126.9" r="17"/></symbol><symbol id="youtube" viewBox="0 0 256 256"><path d="M52.1 28.3a23.9 23.9 0 0 0-23.8 23.8v151.8a23.9 23.9 0 0 0 23.8 23.8h151.8a23.9 23.9 0 0 0 23.8-23.8V52.1a23.9 23.9 0 0 0-23.8-23.8zm28.4 19h11.4l7.6 19 7.6-19h11.4l-14.2 33.2v19h-9.5v-19c-2.9-7.6-12.3-28.4-14.3-33.2zM128 61.6c4.2 0 8.4 1.2 11.1 4.5s3.1 6 3.1 11V84c0 4.9-.9 8.4-2.9 10.7a14.9 14.9 0 0 1-11.3 4.8 14.7 14.7 0 0 1-11.2-4.8c-2-2.3-3-5.8-3-10.7v-6.9c0-4.9 1.1-8.7 3.1-11s6.3-4.5 11.1-4.5zm19 0h9.5V90c.2 1.3 1.6 1.9 2.9 1.9s4.4-2.3 6.6-4.8V61.6h9.5v37.9H166V93c-3.9 3.7-7.2 6.5-11.5 6.4s-5.3-1.2-6.4-3.5a16.8 16.8 0 0 1-1.1-6.6zm-19 7.6a4.8 4.8 0 0 0-1.8.4 5.7 5.7 0 0 0-1.6 1.1 5.6 5.6 0 0 0-1 1.5 5.8 5.8 0 0 0-.3 1.9v13.3a4.8 4.8 0 0 0 1.3 3.4 5.7 5.7 0 0 0 1.6 1.1 4.3 4.3 0 0 0 3.6 0 5 5 0 0 0 2.9-4.5V74.1a4.8 4.8 0 0 0-4.7-4.9zm0 44.6s31.9 0 53.1 1.5c3 .3 9.5.4 15.3 6.3s6 14.7 6 14.7a105.7 105.7 0 0 1 1.5 19.3v11.2a105.7 105.7 0 0 1-1.5 19.3s-1.5 10.2-6 14.7-12.3 6-15.3 6.3c-21.2 1.5-53.1 1.6-53.1 1.6s-39.5-.4-51.6-1.5c-3.4-.7-11-.5-16.8-6.4s-6-14.7-6-14.7a105.7 105.7 0 0 1-1.5-19.3v-11.2a105.7 105.7 0 0 1 1.5-19.3s1.5-10.2 6-14.7 12.3-6 15.3-6.3c21.2-1.5 53.1-1.5 53.1-1.5zm-61.7 18.9v9.4h9.5v47.6h9.5v-47.6h9.5v-9.4zm61.7 0v57h9.5v-5.9c3 3.7 6.9 5.9 10.1 5.9a8 8 0 0 0 7.9-5.6 32.2 32.2 0 0 0 1-8.1v-13a36.5 36.5 0 0 0-1.3-10.2 7.8 7.8 0 0 0-7.6-5.8c-4.7-.1-6.6 2.4-10.1 6.5v-20.8zM94.8 147v31.7a19.6 19.6 0 0 0 1.1 7.2c1 2.5 3.1 3.8 6.2 3.8s7.9-2.4 11.7-6.5v6.5h9.5V147h-9.5v29.7c-2.1 2.8-5.2 4.9-7.1 4.9a2.1 2.1 0 0 1-2.4-1.9V147zm80.8 0c-4.8 0-8.5 1.5-11.2 4.3s-3.2 5.6-3.2 10v14.6c0 4.4 1.3 7.5 3.3 9.5s6.4 4.3 11.3 4.3 8.8-1.5 11.4-4.5a9.4 9.4 0 0 0 2.1-4.5 38.7 38.7 0 0 0 .4-5.2h-9.5v3.7c0 2.2-2.1 4-4.7 4s-4.8-1.8-4.8-4v-8.5h19v-9.6c0-4.4-1.1-7.7-3.1-9.8s-6.3-4.3-11-4.3zm-.1 6.8c2.6 0 4.7 1.8 4.7 4v6.3h-9.5v-6.3c0-2.2 2.1-4 4.8-4zm-32.2 1.5c2.6 0 3.7 1.6 3.7 6.5v13.1c0 4.9-1.1 6.6-3.7 6.6a9.9 9.9 0 0 1-5.8-2.5v-20.7c1.5-1.5 4.3-3 5.8-3z"/></symbol><symbol id="twitter" viewBox="0 0 256 256"><path d="M206.3 28.3a20.4 20.4 0 0 1 15.1 6.3 20.4 20.4 0 0 1 6.3 15.1v156.6a21.5 21.5 0 0 1-21.4 21.4H49.7a20.4 20.4 0 0 1-15.1-6.3 20.4 20.4 0 0 1-6.3-15.1V49.7a20.4 20.4 0 0 1 6.3-15.1 20.4 20.4 0 0 1 15.1-6.3zm-21.8 70.8A68 68 0 0 0 199.2 84a63 63 0 0 1-16.9 4.4 30.4 30.4 0 0 0 12.9-16 57.7 57.7 0 0 1-18.7 7.1 27.1 27.1 0 0 0-20.9-9.3 28.7 28.7 0 0 0-16.3 4.9 29.8 29.8 0 0 0-10.9 13.1 28.8 28.8 0 0 0-1.3 18 79.9 79.9 0 0 1-33.8-9.1 87.6 87.6 0 0 1-26.7-21.6 27.6 27.6 0 0 0-4 14.5 29.4 29.4 0 0 0 13.3 24.7 30.4 30.4 0 0 1-13.3-4.1v.5a28.2 28.2 0 0 0 6.7 18.7A29.7 29.7 0 0 0 86.2 140a42.4 42.4 0 0 1-13.4.5 27.1 27.1 0 0 0 10.3 14.4 27.7 27.7 0 0 0 16.9 5.6 57.3 57.3 0 0 1-36.1 12.4h-7.1a82.8 82.8 0 0 0 45 12.9q25.4 0 45.3-12.9c11.9-7.7 21.2-18.2 28.1-31.6a85.5 85.5 0 0 0 9.3-38.7z"/></symbol></svg>