<svg xmlns="http://www.w3.org/2000/svg"><symbol id="comment" viewBox="0 0 256 256"><path fill="none" stroke="#231f20" stroke-linejoin="round" stroke-width="24" d="M43.3 222.1l15.8-49.3C46.3 160.6 38.5 145 38.5 128c0-38.7 40.1-70.1 89.5-70.1s89.5 31.4 89.5 70.1-40.1 70.1-89.5 70.1a118.2 118.2 0 0 1-20-1.7z"/><circle cx="87.5" cy="126.9" r="17" fill="#231f20"/><circle cx="128" cy="126.9" r="17" fill="#231f20"/><circle cx="168.5" cy="126.9" r="17" fill="#231f20"/></symbol><symbol id="expand" viewBox="0 0 256 256"><path fill="#231f20" d="M146.1 54.9h55v55h32.2V54.6a31.8 31.8 0 0 0-31.9-31.9h-55.3zm-91.2 55v-55h55V22.7H54.6a31.8 31.8 0 0 0-31.9 31.9v55.3zm146.2 36.2v55h-55v32.2h55.3a31.8 31.8 0 0 0 31.9-31.9v-55.3zm-91.2 55h-55v-55H22.7v55.3a31.8 31.8 0 0 0 31.9 31.9h55.3z"/></symbol><symbol id="share" viewBox="0 0 256 256"><path fill="#231f20" d="M184.9 153a40.2 40.2 0 0 0-30.3 13.7l-44.9-18.3a16.9 16.9 0 0 0 .1-2.3 38.5 38.5 0 0 0-1.8-11.9l48-35a40.2 40.2 0 1 0-17.2-32.9 42.8 42.8 0 0 0 1.8 11.9l-47.9 35a40.2 40.2 0 1 0-23.1 73.1 40.3 40.3 0 0 0 30.3-13.8l44.9 18.3a19.3 19.3 0 0 0-.1 2.4 40.2 40.2 0 1 0 40.2-40.2z"/></symbol></svg>