<svg xmlns="http://www.w3.org/2000/svg"><symbol id="share" viewBox="0 0 256 256"><path d="M184.9 153a40.2 40.2 0 0 0-30.3 13.7l-44.9-18.3a16.9 16.9 0 0 0 .1-2.3 38.5 38.5 0 0 0-1.8-11.9l48-35a40.2 40.2 0 1 0-17.2-32.9 42.8 42.8 0 0 0 1.8 11.9l-47.9 35a40.2 40.2 0 1 0-23.1 73.1 40.3 40.3 0 0 0 30.3-13.8l44.9 18.3a19.3 19.3 0 0 0-.1 2.4 40.2 40.2 0 1 0 40.2-40.2z"/></symbol><symbol id="instagram" viewBox="0 0 256 256"><path fill="#fff" d="M206.3 28.3a20.4 20.4 0 0 1 15.1 6.3 20.4 20.4 0 0 1 6.3 15.1v156.6a21.5 21.5 0 0 1-21.4 21.4H49.7a20.4 20.4 0 0 1-15.1-6.3 20.4 20.4 0 0 1-6.3-15.1V49.7a20.4 20.4 0 0 1 6.3-15.1 20.4 20.4 0 0 1 15.1-6.3zm-21.8 70.8A68 68 0 0 0 199.2 84a63 63 0 0 1-16.9 4.4 30.4 30.4 0 0 0 12.9-16 57.7 57.7 0 0 1-18.7 7.1 27.1 27.1 0 0 0-20.9-9.3 28.7 28.7 0 0 0-16.3 4.9 29.8 29.8 0 0 0-10.9 13.1 28.8 28.8 0 0 0-1.3 18 79.9 79.9 0 0 1-33.8-9.1 87.6 87.6 0 0 1-26.7-21.6 27.6 27.6 0 0 0-4 14.5 29.4 29.4 0 0 0 13.3 24.7 30.4 30.4 0 0 1-13.3-4.1v.5a28.2 28.2 0 0 0 6.7 18.7A29.7 29.7 0 0 0 86.2 140a42.4 42.4 0 0 1-13.4.5 27.1 27.1 0 0 0 10.3 14.4 27.7 27.7 0 0 0 16.9 5.6 57.3 57.3 0 0 1-36.1 12.4h-7.1a82.8 82.8 0 0 0 45 12.9q25.4 0 45.3-12.9c11.9-7.7 21.2-18.2 28.1-31.6a85.5 85.5 0 0 0 9.3-38.7z"/></symbol><symbol id="hamburger-close" viewBox="0 0 256 256"><path fill="#f27050" d="M181.8 92H74.2a18 18 0 1 1 0-36h107.6a18 18 0 0 1 0 36zm0 54H74.2a18 18 0 1 1 0-36h107.6a18 18 0 0 1 0 36zm0 54H74.2a18 18 0 1 1 0-36h107.6a18 18 0 0 1 0 36z"/></symbol><symbol id="facebook" viewBox="0 0 256 256"><path fill="#fff" d="M227.7 206.3a21.5 21.5 0 0 1-21.4 21.4h-37.8v-78.8h26.7l4-30.2h-30.7V99.5c0-4.7.9-8.3 2.7-10.6s6.3-4.1 12-4.1h16V58.2a165.6 165.6 0 0 0-23.2-1.4q-17.7 0-28.2 10.5c-7 6.9-10.5 16.7-10.5 29.1v22.3h-27.1v30.2h27.1v78.8H49.7a20.4 20.4 0 0 1-15.1-6.3 20.4 20.4 0 0 1-6.3-15.1V49.7a20.4 20.4 0 0 1 6.3-15.1 20.4 20.4 0 0 1 15.1-6.3h156.6a20.4 20.4 0 0 1 15.1 6.3 20.4 20.4 0 0 1 6.3 15.1z"/></symbol><symbol id="hamburger-open" viewBox="0 0 256 256"><path fill="#fff" d="M181.8 92H74.2a18 18 0 1 1 0-36h107.6a18 18 0 0 1 0 36zm0 54H74.2a18 18 0 1 1 0-36h107.6a18 18 0 0 1 0 36zm0 54H74.2a18 18 0 1 1 0-36h107.6a18 18 0 0 1 0 36z"/></symbol><symbol id="twitter" viewBox="0 0 256 256"><path fill="#fff" d="M227.2 86.6c.3 8.3.5 22.1.5 41.4s-.3 33.1-.7 41.6a85.2 85.2 0 0 1-3.8 22 51.6 51.6 0 0 1-31.6 31.6 85.2 85.2 0 0 1-22 3.8c-8.5.4-22.3.7-41.6.7s-33.1-.3-41.6-.7a76.8 76.8 0 0 1-22-4.2A48 48 0 0 1 45 211a52.4 52.4 0 0 1-12.2-19.4 85.2 85.2 0 0 1-3.8-22c-.4-8.5-.7-22.3-.7-41.6s.3-33.1.7-41.6a85.2 85.2 0 0 1 3.8-22 51.6 51.6 0 0 1 31.6-31.6 85.2 85.2 0 0 1 22-3.8c8.5-.4 22.3-.7 41.6-.7s33.1.3 41.6.7a85.2 85.2 0 0 1 22 3.8 51.6 51.6 0 0 1 31.6 31.6 89.1 89.1 0 0 1 4 22.2zm-21.3 100.1c1.7-5 2.9-13 3.5-24 .3-6.5.5-15.7.5-27.6v-14.2c0-12.2-.2-21.4-.5-27.6-.6-11.3-1.8-19.3-3.5-24a32.5 32.5 0 0 0-19.2-19.2c-4.7-1.7-12.7-2.9-24-3.5-6.5-.3-15.7-.5-27.6-.5h-14.2c-11.9 0-21.1.2-27.6.5-11 .6-19 1.8-24 3.5a32.5 32.5 0 0 0-19.2 19.2c-1.7 4.7-2.9 12.7-3.5 24-.3 6.5-.5 15.7-.5 27.6v14.2c0 11.9.2 21.1.5 27.6.6 11 1.8 19 3.5 24q5.9 13.8 19.2 19.2c5 1.7 13 2.9 24 3.5 6.5.3 15.7.5 27.6.5h14.2c12.2 0 21.4-.2 27.6-.5 11.3-.6 19.3-1.8 24-3.5q13.8-5.8 19.2-19.2zM128 76.8a49.9 49.9 0 0 1 25.6 6.9 52.4 52.4 0 0 1 18.7 18.7 50.9 50.9 0 0 1 0 51.2 52.4 52.4 0 0 1-18.7 18.7 50.9 50.9 0 0 1-51.2 0 52.4 52.4 0 0 1-18.7-18.7 50.9 50.9 0 0 1 0-51.2 52.4 52.4 0 0 1 18.7-18.7 49.9 49.9 0 0 1 25.6-6.9zm0 84.6a33.5 33.5 0 0 0 33.4-33.4A33.5 33.5 0 0 0 128 94.6 33.5 33.5 0 0 0 94.6 128a33.5 33.5 0 0 0 33.4 33.4zm65.4-86.8a12.3 12.3 0 0 0-12-12 12.1 12.1 0 0 0-12 12 12 12 0 0 0 12 12 11 11 0 0 0 8.2-3.5 14.1 14.1 0 0 0 3.8-8.5z"/></symbol><symbol id="comment" viewBox="0 0 256 256"><path d="M43.3 234.1a12.1 12.1 0 0 1-8.2-3.2 11.9 11.9 0 0 1-3.2-12.4l13.6-42.6c-12.3-13.8-19-30.6-19-47.9 0-22.5 11-43.5 30.8-59s44.1-23.1 70.7-23.1 51.7 8.2 70.7 23.1 30.8 36.5 30.8 59-11 43.5-30.8 59-44.1 23.1-70.7 23.1a127.3 127.3 0 0 1-18.6-1.3l-61.6 24.5a11.9 11.9 0 0 1-4.5.8zM128 69.9c-42.7 0-77.5 26-77.5 58.1 0 13.2 5.9 25.6 16.9 36a12.1 12.1 0 0 1 3.1 12.4l-8 25.2 41.1-16.4a12 12 0 0 1 6.5-.6 106.3 106.3 0 0 0 17.9 1.5c42.7 0 77.5-26 77.5-58.1S170.7 69.9 128 69.9z"/><circle cx="87.5" cy="126.9" r="17"/><circle cx="128" cy="126.9" r="17"/><circle cx="168.5" cy="126.9" r="17"/></symbol><symbol id="expand" viewBox="0 0 256 256"><path d="M146.1 54.9h55v55h32.2V54.6a31.8 31.8 0 0 0-31.9-31.9h-55.3zm-91.2 55v-55h55V22.7H54.6a31.8 31.8 0 0 0-31.9 31.9v55.3zm146.2 36.2v55h-55v32.2h55.3a31.8 31.8 0 0 0 31.9-31.9v-55.3zm-91.2 55h-55v-55H22.7v55.3a31.8 31.8 0 0 0 31.9 31.9h55.3z"/></symbol><symbol id="expand" viewBox="0 0 256 256"><path d="M146.1 54.9h55v55h32.2V54.6a31.8 31.8 0 0 0-31.9-31.9h-55.3zm-91.2 55v-55h55V22.7H54.6a31.8 31.8 0 0 0-31.9 31.9v55.3zm146.2 36.2v55h-55v32.2h55.3a31.8 31.8 0 0 0 31.9-31.9v-55.3zm-91.2 55h-55v-55H22.7v55.3a31.8 31.8 0 0 0 31.9 31.9h55.3z"/></symbol><symbol id="facebook" viewBox="0 0 256 256"><path fill="#fff" d="M227.7 206.3a21.5 21.5 0 0 1-21.4 21.4h-37.8v-78.8h26.7l4-30.2h-30.7V99.5c0-4.7.9-8.3 2.7-10.6s6.3-4.1 12-4.1h16V58.2a165.6 165.6 0 0 0-23.2-1.4q-17.7 0-28.2 10.5c-7 6.9-10.5 16.7-10.5 29.1v22.3h-27.1v30.2h27.1v78.8H49.7a20.4 20.4 0 0 1-15.1-6.3 20.4 20.4 0 0 1-6.3-15.1V49.7a20.4 20.4 0 0 1 6.3-15.1 20.4 20.4 0 0 1 15.1-6.3h156.6a20.4 20.4 0 0 1 15.1 6.3 20.4 20.4 0 0 1 6.3 15.1z"/></symbol><symbol id="expand" viewBox="0 0 256 256"><path d="M146.1 54.9h55v55h32.2V54.6a31.8 31.8 0 0 0-31.9-31.9h-55.3zm-91.2 55v-55h55V22.7H54.6a31.8 31.8 0 0 0-31.9 31.9v55.3zm146.2 36.2v55h-55v32.2h55.3a31.8 31.8 0 0 0 31.9-31.9v-55.3zm-91.2 55h-55v-55H22.7v55.3a31.8 31.8 0 0 0 31.9 31.9h55.3z"/></symbol><symbol id="facebook" viewBox="0 0 256 256"><path fill="#fff" d="M227.7 206.3a21.5 21.5 0 0 1-21.4 21.4h-37.8v-78.8h26.7l4-30.2h-30.7V99.5c0-4.7.9-8.3 2.7-10.6s6.3-4.1 12-4.1h16V58.2a165.6 165.6 0 0 0-23.2-1.4q-17.7 0-28.2 10.5c-7 6.9-10.5 16.7-10.5 29.1v22.3h-27.1v30.2h27.1v78.8H49.7a20.4 20.4 0 0 1-15.1-6.3 20.4 20.4 0 0 1-6.3-15.1V49.7a20.4 20.4 0 0 1 6.3-15.1 20.4 20.4 0 0 1 15.1-6.3h156.6a20.4 20.4 0 0 1 15.1 6.3 20.4 20.4 0 0 1 6.3 15.1z"/></symbol><symbol id="expand" viewBox="0 0 256 256"><path d="M146.1 54.9h55v55h32.2V54.6a31.8 31.8 0 0 0-31.9-31.9h-55.3zm-91.2 55v-55h55V22.7H54.6a31.8 31.8 0 0 0-31.9 31.9v55.3zm146.2 36.2v55h-55v32.2h55.3a31.8 31.8 0 0 0 31.9-31.9v-55.3zm-91.2 55h-55v-55H22.7v55.3a31.8 31.8 0 0 0 31.9 31.9h55.3z"/></symbol><symbol id="hamburger" viewBox="0 0 256 256"><path d="M181.8 92H74.2a18 18 0 1 1 0-36h107.6a18 18 0 0 1 0 36zm0 54H74.2a18 18 0 1 1 0-36h107.6a18 18 0 0 1 0 36zm0 54H74.2a18 18 0 1 1 0-36h107.6a18 18 0 0 1 0 36z"/></symbol><symbol id="expand" viewBox="0 0 256 256"><path d="M146.1 54.9h55v55h32.2V54.6a31.8 31.8 0 0 0-31.9-31.9h-55.3zm-91.2 55v-55h55V22.7H54.6a31.8 31.8 0 0 0-31.9 31.9v55.3zm146.2 36.2v55h-55v32.2h55.3a31.8 31.8 0 0 0 31.9-31.9v-55.3zm-91.2 55h-55v-55H22.7v55.3a31.8 31.8 0 0 0 31.9 31.9h55.3z"/></symbol><symbol id="facebook" viewBox="0 0 256 256"><path fill="#fff" d="M227.7 206.3a21.5 21.5 0 0 1-21.4 21.4h-37.8v-78.8h26.7l4-30.2h-30.7V99.5c0-4.7.9-8.3 2.7-10.6s6.3-4.1 12-4.1h16V58.2a165.6 165.6 0 0 0-23.2-1.4q-17.7 0-28.2 10.5c-7 6.9-10.5 16.7-10.5 29.1v22.3h-27.1v30.2h27.1v78.8H49.7a20.4 20.4 0 0 1-15.1-6.3 20.4 20.4 0 0 1-6.3-15.1V49.7a20.4 20.4 0 0 1 6.3-15.1 20.4 20.4 0 0 1 15.1-6.3h156.6a20.4 20.4 0 0 1 15.1 6.3 20.4 20.4 0 0 1 6.3 15.1z"/></symbol><symbol id="hamburger" viewBox="0 0 256 256"><path d="M181.8 92H74.2a18 18 0 1 1 0-36h107.6a18 18 0 0 1 0 36zm0 54H74.2a18 18 0 1 1 0-36h107.6a18 18 0 0 1 0 36zm0 54H74.2a18 18 0 1 1 0-36h107.6a18 18 0 0 1 0 36z"/></symbol><symbol id="instagram" viewBox="0 0 256 256"><path fill="#fff" d="M206.3 28.3a20.4 20.4 0 0 1 15.1 6.3 20.4 20.4 0 0 1 6.3 15.1v156.6a21.5 21.5 0 0 1-21.4 21.4H49.7a20.4 20.4 0 0 1-15.1-6.3 20.4 20.4 0 0 1-6.3-15.1V49.7a20.4 20.4 0 0 1 6.3-15.1 20.4 20.4 0 0 1 15.1-6.3zm-21.8 70.8A68 68 0 0 0 199.2 84a63 63 0 0 1-16.9 4.4 30.4 30.4 0 0 0 12.9-16 57.7 57.7 0 0 1-18.7 7.1 27.1 27.1 0 0 0-20.9-9.3 28.7 28.7 0 0 0-16.3 4.9 29.8 29.8 0 0 0-10.9 13.1 28.8 28.8 0 0 0-1.3 18 79.9 79.9 0 0 1-33.8-9.1 87.6 87.6 0 0 1-26.7-21.6 27.6 27.6 0 0 0-4 14.5 29.4 29.4 0 0 0 13.3 24.7 30.4 30.4 0 0 1-13.3-4.1v.5a28.2 28.2 0 0 0 6.7 18.7A29.7 29.7 0 0 0 86.2 140a42.4 42.4 0 0 1-13.4.5 27.1 27.1 0 0 0 10.3 14.4 27.7 27.7 0 0 0 16.9 5.6 57.3 57.3 0 0 1-36.1 12.4h-7.1a82.8 82.8 0 0 0 45 12.9q25.4 0 45.3-12.9c11.9-7.7 21.2-18.2 28.1-31.6a85.5 85.5 0 0 0 9.3-38.7z"/></symbol><symbol id="expand" viewBox="0 0 256 256"><path d="M146.1 54.9h55v55h32.2V54.6a31.8 31.8 0 0 0-31.9-31.9h-55.3zm-91.2 55v-55h55V22.7H54.6a31.8 31.8 0 0 0-31.9 31.9v55.3zm146.2 36.2v55h-55v32.2h55.3a31.8 31.8 0 0 0 31.9-31.9v-55.3zm-91.2 55h-55v-55H22.7v55.3a31.8 31.8 0 0 0 31.9 31.9h55.3z"/></symbol><symbol id="facebook" viewBox="0 0 256 256"><path fill="#fff" d="M227.7 206.3a21.5 21.5 0 0 1-21.4 21.4h-37.8v-78.8h26.7l4-30.2h-30.7V99.5c0-4.7.9-8.3 2.7-10.6s6.3-4.1 12-4.1h16V58.2a165.6 165.6 0 0 0-23.2-1.4q-17.7 0-28.2 10.5c-7 6.9-10.5 16.7-10.5 29.1v22.3h-27.1v30.2h27.1v78.8H49.7a20.4 20.4 0 0 1-15.1-6.3 20.4 20.4 0 0 1-6.3-15.1V49.7a20.4 20.4 0 0 1 6.3-15.1 20.4 20.4 0 0 1 15.1-6.3h156.6a20.4 20.4 0 0 1 15.1 6.3 20.4 20.4 0 0 1 6.3 15.1z"/></symbol><symbol id="hamburger" viewBox="0 0 256 256"><path d="M181.8 92H74.2a18 18 0 1 1 0-36h107.6a18 18 0 0 1 0 36zm0 54H74.2a18 18 0 1 1 0-36h107.6a18 18 0 0 1 0 36zm0 54H74.2a18 18 0 1 1 0-36h107.6a18 18 0 0 1 0 36z"/></symbol><symbol id="share" viewBox="0 0 256 256"><path d="M184.9 153a40.2 40.2 0 0 0-30.3 13.7l-44.9-18.3a16.9 16.9 0 0 0 .1-2.3 38.5 38.5 0 0 0-1.8-11.9l48-35a40.2 40.2 0 1 0-17.2-32.9 42.8 42.8 0 0 0 1.8 11.9l-47.9 35a40.2 40.2 0 1 0-23.1 73.1 40.3 40.3 0 0 0 30.3-13.8l44.9 18.3a19.3 19.3 0 0 0-.1 2.4 40.2 40.2 0 1 0 40.2-40.2z"/></symbol><symbol id="instagram" viewBox="0 0 256 256"><path fill="#fff" d="M206.3 28.3a20.4 20.4 0 0 1 15.1 6.3 20.4 20.4 0 0 1 6.3 15.1v156.6a21.5 21.5 0 0 1-21.4 21.4H49.7a20.4 20.4 0 0 1-15.1-6.3 20.4 20.4 0 0 1-6.3-15.1V49.7a20.4 20.4 0 0 1 6.3-15.1 20.4 20.4 0 0 1 15.1-6.3zm-21.8 70.8A68 68 0 0 0 199.2 84a63 63 0 0 1-16.9 4.4 30.4 30.4 0 0 0 12.9-16 57.7 57.7 0 0 1-18.7 7.1 27.1 27.1 0 0 0-20.9-9.3 28.7 28.7 0 0 0-16.3 4.9 29.8 29.8 0 0 0-10.9 13.1 28.8 28.8 0 0 0-1.3 18 79.9 79.9 0 0 1-33.8-9.1 87.6 87.6 0 0 1-26.7-21.6 27.6 27.6 0 0 0-4 14.5 29.4 29.4 0 0 0 13.3 24.7 30.4 30.4 0 0 1-13.3-4.1v.5a28.2 28.2 0 0 0 6.7 18.7A29.7 29.7 0 0 0 86.2 140a42.4 42.4 0 0 1-13.4.5 27.1 27.1 0 0 0 10.3 14.4 27.7 27.7 0 0 0 16.9 5.6 57.3 57.3 0 0 1-36.1 12.4h-7.1a82.8 82.8 0 0 0 45 12.9q25.4 0 45.3-12.9c11.9-7.7 21.2-18.2 28.1-31.6a85.5 85.5 0 0 0 9.3-38.7z"/></symbol><symbol id="expand" viewBox="0 0 256 256"><path d="M146.1 54.9h55v55h32.2V54.6a31.8 31.8 0 0 0-31.9-31.9h-55.3zm-91.2 55v-55h55V22.7H54.6a31.8 31.8 0 0 0-31.9 31.9v55.3zm146.2 36.2v55h-55v32.2h55.3a31.8 31.8 0 0 0 31.9-31.9v-55.3zm-91.2 55h-55v-55H22.7v55.3a31.8 31.8 0 0 0 31.9 31.9h55.3z"/></symbol><symbol id="facebook" viewBox="0 0 256 256"><path fill="#fff" d="M227.7 206.3a21.5 21.5 0 0 1-21.4 21.4h-37.8v-78.8h26.7l4-30.2h-30.7V99.5c0-4.7.9-8.3 2.7-10.6s6.3-4.1 12-4.1h16V58.2a165.6 165.6 0 0 0-23.2-1.4q-17.7 0-28.2 10.5c-7 6.9-10.5 16.7-10.5 29.1v22.3h-27.1v30.2h27.1v78.8H49.7a20.4 20.4 0 0 1-15.1-6.3 20.4 20.4 0 0 1-6.3-15.1V49.7a20.4 20.4 0 0 1 6.3-15.1 20.4 20.4 0 0 1 15.1-6.3h156.6a20.4 20.4 0 0 1 15.1 6.3 20.4 20.4 0 0 1 6.3 15.1z"/></symbol><symbol id="hamburger" viewBox="0 0 256 256"><path d="M181.8 92H74.2a18 18 0 1 1 0-36h107.6a18 18 0 0 1 0 36zm0 54H74.2a18 18 0 1 1 0-36h107.6a18 18 0 0 1 0 36zm0 54H74.2a18 18 0 1 1 0-36h107.6a18 18 0 0 1 0 36z"/></symbol><symbol id="instagram" viewBox="0 0 256 256"><path fill="#fff" d="M206.3 28.3a20.4 20.4 0 0 1 15.1 6.3 20.4 20.4 0 0 1 6.3 15.1v156.6a21.5 21.5 0 0 1-21.4 21.4H49.7a20.4 20.4 0 0 1-15.1-6.3 20.4 20.4 0 0 1-6.3-15.1V49.7a20.4 20.4 0 0 1 6.3-15.1 20.4 20.4 0 0 1 15.1-6.3zm-21.8 70.8A68 68 0 0 0 199.2 84a63 63 0 0 1-16.9 4.4 30.4 30.4 0 0 0 12.9-16 57.7 57.7 0 0 1-18.7 7.1 27.1 27.1 0 0 0-20.9-9.3 28.7 28.7 0 0 0-16.3 4.9 29.8 29.8 0 0 0-10.9 13.1 28.8 28.8 0 0 0-1.3 18 79.9 79.9 0 0 1-33.8-9.1 87.6 87.6 0 0 1-26.7-21.6 27.6 27.6 0 0 0-4 14.5 29.4 29.4 0 0 0 13.3 24.7 30.4 30.4 0 0 1-13.3-4.1v.5a28.2 28.2 0 0 0 6.7 18.7A29.7 29.7 0 0 0 86.2 140a42.4 42.4 0 0 1-13.4.5 27.1 27.1 0 0 0 10.3 14.4 27.7 27.7 0 0 0 16.9 5.6 57.3 57.3 0 0 1-36.1 12.4h-7.1a82.8 82.8 0 0 0 45 12.9q25.4 0 45.3-12.9c11.9-7.7 21.2-18.2 28.1-31.6a85.5 85.5 0 0 0 9.3-38.7z"/></symbol><symbol id="share" viewBox="0 0 256 256"><path d="M184.9 153a40.2 40.2 0 0 0-30.3 13.7l-44.9-18.3a16.9 16.9 0 0 0 .1-2.3 38.5 38.5 0 0 0-1.8-11.9l48-35a40.2 40.2 0 1 0-17.2-32.9 42.8 42.8 0 0 0 1.8 11.9l-47.9 35a40.2 40.2 0 1 0-23.1 73.1 40.3 40.3 0 0 0 30.3-13.8l44.9 18.3a19.3 19.3 0 0 0-.1 2.4 40.2 40.2 0 1 0 40.2-40.2z"/></symbol><symbol id="twitter" viewBox="0 0 256 256"><path fill="#fff" d="M227.2 86.6c.3 8.3.5 22.1.5 41.4s-.3 33.1-.7 41.6a85.2 85.2 0 0 1-3.8 22 51.6 51.6 0 0 1-31.6 31.6 85.2 85.2 0 0 1-22 3.8c-8.5.4-22.3.7-41.6.7s-33.1-.3-41.6-.7a76.8 76.8 0 0 1-22-4.2A48 48 0 0 1 45 211a52.4 52.4 0 0 1-12.2-19.4 85.2 85.2 0 0 1-3.8-22c-.4-8.5-.7-22.3-.7-41.6s.3-33.1.7-41.6a85.2 85.2 0 0 1 3.8-22 51.6 51.6 0 0 1 31.6-31.6 85.2 85.2 0 0 1 22-3.8c8.5-.4 22.3-.7 41.6-.7s33.1.3 41.6.7a85.2 85.2 0 0 1 22 3.8 51.6 51.6 0 0 1 31.6 31.6 89.1 89.1 0 0 1 4 22.2zm-21.3 100.1c1.7-5 2.9-13 3.5-24 .3-6.5.5-15.7.5-27.6v-14.2c0-12.2-.2-21.4-.5-27.6-.6-11.3-1.8-19.3-3.5-24a32.5 32.5 0 0 0-19.2-19.2c-4.7-1.7-12.7-2.9-24-3.5-6.5-.3-15.7-.5-27.6-.5h-14.2c-11.9 0-21.1.2-27.6.5-11 .6-19 1.8-24 3.5a32.5 32.5 0 0 0-19.2 19.2c-1.7 4.7-2.9 12.7-3.5 24-.3 6.5-.5 15.7-.5 27.6v14.2c0 11.9.2 21.1.5 27.6.6 11 1.8 19 3.5 24q5.9 13.8 19.2 19.2c5 1.7 13 2.9 24 3.5 6.5.3 15.7.5 27.6.5h14.2c12.2 0 21.4-.2 27.6-.5 11.3-.6 19.3-1.8 24-3.5q13.8-5.8 19.2-19.2zM128 76.8a49.9 49.9 0 0 1 25.6 6.9 52.4 52.4 0 0 1 18.7 18.7 50.9 50.9 0 0 1 0 51.2 52.4 52.4 0 0 1-18.7 18.7 50.9 50.9 0 0 1-51.2 0 52.4 52.4 0 0 1-18.7-18.7 50.9 50.9 0 0 1 0-51.2 52.4 52.4 0 0 1 18.7-18.7 49.9 49.9 0 0 1 25.6-6.9zm0 84.6a33.5 33.5 0 0 0 33.4-33.4A33.5 33.5 0 0 0 128 94.6 33.5 33.5 0 0 0 94.6 128a33.5 33.5 0 0 0 33.4 33.4zm65.4-86.8a12.3 12.3 0 0 0-12-12 12.1 12.1 0 0 0-12 12 12 12 0 0 0 12 12 11 11 0 0 0 8.2-3.5 14.1 14.1 0 0 0 3.8-8.5z"/></symbol><symbol id="expand" viewBox="0 0 256 256"><path d="M146.1 54.9h55v55h32.2V54.6a31.8 31.8 0 0 0-31.9-31.9h-55.3zm-91.2 55v-55h55V22.7H54.6a31.8 31.8 0 0 0-31.9 31.9v55.3zm146.2 36.2v55h-55v32.2h55.3a31.8 31.8 0 0 0 31.9-31.9v-55.3zm-91.2 55h-55v-55H22.7v55.3a31.8 31.8 0 0 0 31.9 31.9h55.3z"/></symbol><symbol id="hamburger" viewBox="0 0 256 256"><path d="M181.8 92H74.2a18 18 0 1 1 0-36h107.6a18 18 0 0 1 0 36zm0 54H74.2a18 18 0 1 1 0-36h107.6a18 18 0 0 1 0 36zm0 54H74.2a18 18 0 1 1 0-36h107.6a18 18 0 0 1 0 36z"/></symbol><symbol id="instagram" viewBox="0 0 256 256"><path fill="#fff" d="M206.3 28.3a20.4 20.4 0 0 1 15.1 6.3 20.4 20.4 0 0 1 6.3 15.1v156.6a21.5 21.5 0 0 1-21.4 21.4H49.7a20.4 20.4 0 0 1-15.1-6.3 20.4 20.4 0 0 1-6.3-15.1V49.7a20.4 20.4 0 0 1 6.3-15.1 20.4 20.4 0 0 1 15.1-6.3zm-21.8 70.8A68 68 0 0 0 199.2 84a63 63 0 0 1-16.9 4.4 30.4 30.4 0 0 0 12.9-16 57.7 57.7 0 0 1-18.7 7.1 27.1 27.1 0 0 0-20.9-9.3 28.7 28.7 0 0 0-16.3 4.9 29.8 29.8 0 0 0-10.9 13.1 28.8 28.8 0 0 0-1.3 18 79.9 79.9 0 0 1-33.8-9.1 87.6 87.6 0 0 1-26.7-21.6 27.6 27.6 0 0 0-4 14.5 29.4 29.4 0 0 0 13.3 24.7 30.4 30.4 0 0 1-13.3-4.1v.5a28.2 28.2 0 0 0 6.7 18.7A29.7 29.7 0 0 0 86.2 140a42.4 42.4 0 0 1-13.4.5 27.1 27.1 0 0 0 10.3 14.4 27.7 27.7 0 0 0 16.9 5.6 57.3 57.3 0 0 1-36.1 12.4h-7.1a82.8 82.8 0 0 0 45 12.9q25.4 0 45.3-12.9c11.9-7.7 21.2-18.2 28.1-31.6a85.5 85.5 0 0 0 9.3-38.7z"/></symbol><symbol id="facebook" viewBox="0 0 256 256"><path fill="#fff" d="M227.7 206.3a21.5 21.5 0 0 1-21.4 21.4h-37.8v-78.8h26.7l4-30.2h-30.7V99.5c0-4.7.9-8.3 2.7-10.6s6.3-4.1 12-4.1h16V58.2a165.6 165.6 0 0 0-23.2-1.4q-17.7 0-28.2 10.5c-7 6.9-10.5 16.7-10.5 29.1v22.3h-27.1v30.2h27.1v78.8H49.7a20.4 20.4 0 0 1-15.1-6.3 20.4 20.4 0 0 1-6.3-15.1V49.7a20.4 20.4 0 0 1 6.3-15.1 20.4 20.4 0 0 1 15.1-6.3h156.6a20.4 20.4 0 0 1 15.1 6.3 20.4 20.4 0 0 1 6.3 15.1z"/></symbol><symbol id="share" viewBox="0 0 256 256"><path d="M184.9 153a40.2 40.2 0 0 0-30.3 13.7l-44.9-18.3a16.9 16.9 0 0 0 .1-2.3 38.5 38.5 0 0 0-1.8-11.9l48-35a40.2 40.2 0 1 0-17.2-32.9 42.8 42.8 0 0 0 1.8 11.9l-47.9 35a40.2 40.2 0 1 0-23.1 73.1 40.3 40.3 0 0 0 30.3-13.8l44.9 18.3a19.3 19.3 0 0 0-.1 2.4 40.2 40.2 0 1 0 40.2-40.2z"/></symbol><symbol id="twitter" viewBox="0 0 256 256"><path fill="#fff" d="M227.2 86.6c.3 8.3.5 22.1.5 41.4s-.3 33.1-.7 41.6a85.2 85.2 0 0 1-3.8 22 51.6 51.6 0 0 1-31.6 31.6 85.2 85.2 0 0 1-22 3.8c-8.5.4-22.3.7-41.6.7s-33.1-.3-41.6-.7a76.8 76.8 0 0 1-22-4.2A48 48 0 0 1 45 211a52.4 52.4 0 0 1-12.2-19.4 85.2 85.2 0 0 1-3.8-22c-.4-8.5-.7-22.3-.7-41.6s.3-33.1.7-41.6a85.2 85.2 0 0 1 3.8-22 51.6 51.6 0 0 1 31.6-31.6 85.2 85.2 0 0 1 22-3.8c8.5-.4 22.3-.7 41.6-.7s33.1.3 41.6.7a85.2 85.2 0 0 1 22 3.8 51.6 51.6 0 0 1 31.6 31.6 89.1 89.1 0 0 1 4 22.2zm-21.3 100.1c1.7-5 2.9-13 3.5-24 .3-6.5.5-15.7.5-27.6v-14.2c0-12.2-.2-21.4-.5-27.6-.6-11.3-1.8-19.3-3.5-24a32.5 32.5 0 0 0-19.2-19.2c-4.7-1.7-12.7-2.9-24-3.5-6.5-.3-15.7-.5-27.6-.5h-14.2c-11.9 0-21.1.2-27.6.5-11 .6-19 1.8-24 3.5a32.5 32.5 0 0 0-19.2 19.2c-1.7 4.7-2.9 12.7-3.5 24-.3 6.5-.5 15.7-.5 27.6v14.2c0 11.9.2 21.1.5 27.6.6 11 1.8 19 3.5 24q5.9 13.8 19.2 19.2c5 1.7 13 2.9 24 3.5 6.5.3 15.7.5 27.6.5h14.2c12.2 0 21.4-.2 27.6-.5 11.3-.6 19.3-1.8 24-3.5q13.8-5.8 19.2-19.2zM128 76.8a49.9 49.9 0 0 1 25.6 6.9 52.4 52.4 0 0 1 18.7 18.7 50.9 50.9 0 0 1 0 51.2 52.4 52.4 0 0 1-18.7 18.7 50.9 50.9 0 0 1-51.2 0 52.4 52.4 0 0 1-18.7-18.7 50.9 50.9 0 0 1 0-51.2 52.4 52.4 0 0 1 18.7-18.7 49.9 49.9 0 0 1 25.6-6.9zm0 84.6a33.5 33.5 0 0 0 33.4-33.4A33.5 33.5 0 0 0 128 94.6 33.5 33.5 0 0 0 94.6 128a33.5 33.5 0 0 0 33.4 33.4zm65.4-86.8a12.3 12.3 0 0 0-12-12 12.1 12.1 0 0 0-12 12 12 12 0 0 0 12 12 11 11 0 0 0 8.2-3.5 14.1 14.1 0 0 0 3.8-8.5z"/></symbol><symbol id="comment" viewBox="0 0 256 256"><path d="M43.3 234.1a12.1 12.1 0 0 1-8.2-3.2 11.9 11.9 0 0 1-3.2-12.4l13.6-42.6c-12.3-13.8-19-30.6-19-47.9 0-22.5 11-43.5 30.8-59s44.1-23.1 70.7-23.1 51.7 8.2 70.7 23.1 30.8 36.5 30.8 59-11 43.5-30.8 59-44.1 23.1-70.7 23.1a127.3 127.3 0 0 1-18.6-1.3l-61.6 24.5a11.9 11.9 0 0 1-4.5.8zM128 69.9c-42.7 0-77.5 26-77.5 58.1 0 13.2 5.9 25.6 16.9 36a12.1 12.1 0 0 1 3.1 12.4l-8 25.2 41.1-16.4a12 12 0 0 1 6.5-.6 106.3 106.3 0 0 0 17.9 1.5c42.7 0 77.5-26 77.5-58.1S170.7 69.9 128 69.9z"/><circle cx="87.5" cy="126.9" r="17"/><circle cx="128" cy="126.9" r="17"/><circle cx="168.5" cy="126.9" r="17"/></symbol></svg>