<svg xmlns="http://www.w3.org/2000/svg"><symbol id="comment" viewBox="0 0 256 256"><path d="M53 217.7a10.3 10.3 0 0 1-7.2-3.1 11.8 11.8 0 0 1-2.8-11.8l11.9-40.4a71.9 71.9 0 0 1-16.6-45.6c0-21.4 9.6-41.3 27.1-56.1s38.8-21.9 62.1-21.9 45.5 7.8 62.2 21.9 27.1 34.7 27.1 56.1-9.6 41.3-27.1 56.1-38.8 22-62.2 22a112.2 112.2 0 0 1-16.4-1.3l-54.2 23.3a10.5 10.5 0 0 1-3.9.8zm74.5-156.1c-37.5 0-68.1 24.8-68.1 55.2 0 12.5 5.1 24.4 14.8 34.3a12.1 12.1 0 0 1 2.8 11.7l-7.1 23.9 36.2-15.5a9.3 9.3 0 0 1 5.7-.6 81.9 81.9 0 0 0 15.7 1.5c37.6 0 68.2-24.8 68.2-55.3s-30.6-55.2-68.2-55.2z"/><ellipse cx="91.9" cy="115.8" rx="15" ry="16.2"/><ellipse cx="127.5" cy="115.8" rx="15" ry="16.2"/><ellipse cx="163.2" cy="115.8" rx="15" ry="16.2"/></symbol><symbol id="expand" viewBox="0 0 256 256"><path d="M143.4 65.8h46.8v46.8h27.4V65.5a27.2 27.2 0 0 0-27.1-27.1h-47.1zm-77.6 46.8V65.8h46.8V38.4H65.5a27.2 27.2 0 0 0-27.1 27.1v47.1zm124.4 30.8v46.8h-46.8v27.4h47.1a27.2 27.2 0 0 0 27.1-27.1v-47.1zm-77.6 46.8H65.8v-46.8H38.4v47.1a27.2 27.2 0 0 0 27.1 27.1h47.1z"/></symbol><symbol id="facebook" viewBox="0 0 256 256"><path d="M217.6 198.4a19.1 19.1 0 0 1-19.2 19.2h-34v-70.8h24l3.6-27.2h-27.6v-17.2q0-6.5 2.4-9.6t10.8-3.6H192v-24a150.4 150.4 0 0 0-20.8-1.2c-10.7 0-19.1 3.1-25.4 9.4s-9.4 15-9.4 26.2v20H112v27.2h24.4v70.8H57.6a19.1 19.1 0 0 1-19.2-19.2V57.6a19.1 19.1 0 0 1 19.2-19.2h140.8a19.1 19.1 0 0 1 19.2 19.2z"/></symbol><symbol id="hamburger" viewBox="0 0 256 256"><path d="M199.7 145.9H56.4a17.9 17.9 0 1 1 0-35.8h143.3a17.9 17.9 0 1 1 0 35.8zm0-71.7H56.4a17.9 17.9 0 1 1 0-35.8h143.3a17.9 17.9 0 1 1 0 35.8zm0 143.4H56.4a17.9 17.9 0 1 1 0-35.8h143.3a17.9 17.9 0 1 1 0 35.8z"/></symbol><symbol id="instagram" viewBox="0 0 256 256"><path d="M217.2 90.8c.3 7.5.4 19.9.4 37.2s-.2 29.8-.6 37.4a74.1 74.1 0 0 1-3.4 19.8 46.8 46.8 0 0 1-28.4 28.4 74.1 74.1 0 0 1-19.8 3.4c-7.6.4-20.1.6-37.4.6s-29.8-.2-37.4-.6a63.4 63.4 0 0 1-19.8-3.8 41.2 41.2 0 0 1-17.4-10.6 45.3 45.3 0 0 1-11-17.4 74.1 74.1 0 0 1-3.4-19.8c-.4-7.6-.6-20.1-.6-37.4s.2-29.8.6-37.4a74.1 74.1 0 0 1 3.4-19.8 46.8 46.8 0 0 1 28.4-28.4A74.1 74.1 0 0 1 90.6 39c7.6-.4 20.1-.6 37.4-.6s29.8.2 37.4.6a74.1 74.1 0 0 1 19.8 3.4 46.8 46.8 0 0 1 28.4 28.4 77.8 77.8 0 0 1 3.6 20zm-19.2 90c1.6-4.5 2.7-11.7 3.2-21.6.3-5.9.4-14.1.4-24.8v-12.8c0-10.9-.1-19.2-.4-24.8-.5-10.2-1.6-17.4-3.2-21.6A28.7 28.7 0 0 0 180.8 58c-4.2-1.6-11.4-2.7-21.6-3.2-5.9-.3-14.1-.4-24.8-.4h-12.8c-10.7 0-18.9.1-24.8.4-9.9.5-17.1 1.6-21.6 3.2A28.7 28.7 0 0 0 58 75.2c-1.6 4.2-2.7 11.4-3.2 21.6-.3 5.9-.4 14.1-.4 24.8v12.8c0 10.7.1 18.9.4 24.8.5 9.9 1.6 17.1 3.2 21.6A30 30 0 0 0 75.2 198c4.5 1.6 11.7 2.7 21.6 3.2 5.9.3 14.1.4 24.8.4h12.8c10.9 0 19.2-.1 24.8-.4 10.2-.5 17.4-1.6 21.6-3.2a30 30 0 0 0 17.2-17.2zM128 82a44.1 44.1 0 0 1 23 6.2 45.1 45.1 0 0 1 16.8 16.8 45.8 45.8 0 0 1 0 46 45.1 45.1 0 0 1-16.8 16.8 45.8 45.8 0 0 1-46 0A45.1 45.1 0 0 1 88.2 151a45.8 45.8 0 0 1 0-46A45.1 45.1 0 0 1 105 88.2a44.1 44.1 0 0 1 23-6.2zm0 76a30 30 0 0 0 30-30 30 30 0 0 0-30-30 30 30 0 0 0-30 30 30 30 0 0 0 30 30zm58.8-78A10.9 10.9 0 0 0 176 69.2 10.9 10.9 0 0 0 165.2 80 10.9 10.9 0 0 0 176 90.8a9.8 9.8 0 0 0 7.4-3.2 12.3 12.3 0 0 0 3.4-7.6z"/></symbol><symbol id="return" viewBox="0 0 256 256"><path d="M128 58.2A69.8 69.8 0 1 1 58.2 128 69.9 69.9 0 0 1 128 58.2m0-19.8a89.6 89.6 0 1 0 89.6 89.6A89.6 89.6 0 0 0 128 38.4z"/><path d="M165.3 119.1L128 81.8l-37.3 37.3 14 14 12.8-12.8v53.9h21v-53.9l12.8 12.8 14-14z"/></symbol><symbol id="share" viewBox="0 0 256 256"><path d="M177.8 148.1a34.8 34.8 0 0 0-26.2 11.9l-38.7-15.8v-2a34.7 34.7 0 0 0-1.5-10.3l41.4-30.3a34.7 34.7 0 1 0 20-63.2A34.8 34.8 0 0 0 138 73.1a35.9 35.9 0 0 0 1.6 10.4l-41.5 30.2a34.1 34.1 0 0 0-19.9-6.3 34.8 34.8 0 1 0 26.2 57.6l38.7 15.8v2.1a34.8 34.8 0 1 0 34.7-34.8z"/></symbol><symbol id="twitter" viewBox="0 0 256 256"><path d="M198.4 38.4a19.1 19.1 0 0 1 19.2 19.2v140.8a19.1 19.1 0 0 1-19.2 19.2H57.6a19.1 19.1 0 0 1-19.2-19.2V57.6a19.1 19.1 0 0 1 19.2-19.2zM178.8 102A56.9 56.9 0 0 0 192 88.4a53.5 53.5 0 0 1-15.2 4A27 27 0 0 0 188.4 78a49.9 49.9 0 0 1-16.8 6.4 24.3 24.3 0 0 0-18.8-8.4 26.1 26.1 0 0 0-25.6 32.4 71.7 71.7 0 0 1-30.4-8.2 79.2 79.2 0 0 1-24-19.4 24.7 24.7 0 0 0-3.6 13 26.4 26.4 0 0 0 3.2 12.8 25.6 25.6 0 0 0 8.8 9.4 27.9 27.9 0 0 1-12-3.6v.4a25.4 25.4 0 0 0 6 16.8 26.5 26.5 0 0 0 15.2 9.2 36.6 36.6 0 0 1-12 .4 24.7 24.7 0 0 0 9.2 13 25.2 25.2 0 0 0 15.2 5 51.2 51.2 0 0 1-32.4 11.2H64a74.5 74.5 0 0 0 40.4 11.6c15.2 0 28.8-3.9 40.8-11.6a71.7 71.7 0 0 0 25.2-28.4 76.9 76.9 0 0 0 8.4-34.8z"/></symbol><symbol id="youtube" viewBox="0 0 256 256"><path d="M59.7 38.4a21.4 21.4 0 0 0-21.3 21.3v136.6a21.4 21.4 0 0 0 21.3 21.3h136.6a21.4 21.4 0 0 0 21.3-21.3V59.7a21.4 21.4 0 0 0-21.3-21.3zm25.6 17.1h10.3l6.8 17 6.8-17h10.3l-12.8 29.8v17.1h-8.6V85.3c-2.5-6.9-11-25.5-12.8-29.8zM128 68.3c3.8 0 7.6 1.1 9.9 4s2.9 5.5 2.9 9.9v6.3c0 4.4-.8 7.5-2.6 9.6a13.7 13.7 0 0 1-10.2 4.3 13.4 13.4 0 0 1-10.1-4.3c-1.8-2.1-2.7-5.2-2.7-9.6v-6.2c0-4.5 1-7.9 2.9-10s5.6-4 9.9-4zm17.1 0h8.5v25.6c.2 1.1 1.4 1.6 2.6 1.6s4-2 5.9-4.3V68.3h8.6v34.1h-8.6v-5.9c-3.4 3.4-6.4 5.9-10.2 5.8s-4.8-1.1-5.8-3.2a13.6 13.6 0 0 1-1-5.9zM128 75.2a5.1 5.1 0 0 0-1.7.3 4.1 4.1 0 0 0-1.3 1 3.8 3.8 0 0 0-.9 1.3 5.3 5.3 0 0 0-.4 1.7v12a4.4 4.4 0 0 0 1.3 3.1 3.8 3.8 0 0 0 1.3.9 3.8 3.8 0 0 0 3.4 0 4.3 4.3 0 0 0 2.6-4v-12a4.3 4.3 0 0 0-4.3-4.3zm0 40s28.7 0 47.8 1.4c2.7.3 8.5.3 13.7 5.6s5.4 13.3 5.4 13.3a90.6 90.6 0 0 1 1.4 17.3v10.1a90.6 90.6 0 0 1-1.4 17.3s-1.3 9.2-5.4 13.3-11 5.3-13.7 5.6c-19.1 1.4-47.8 1.4-47.8 1.4s-35.5-.3-46.4-1.3c-3.1-.6-9.9-.4-15.1-5.7s-5.4-13.3-5.4-13.3a90.6 90.6 0 0 1-1.4-17.3v-10.1a90.6 90.6 0 0 1 1.4-17.3s1.3-9.2 5.4-13.3 11-5.3 13.7-5.6c19.1-1.4 47.8-1.4 47.8-1.4zm-55.5 17.1v8.4h8.6v42.8h8.5v-42.8h8.5v-8.4zm55.5 0v51.2h8.5v-5.4c2.7 3.4 6.2 5.4 9.1 5.4a7.3 7.3 0 0 0 7.1-5.1 22.8 22.8 0 0 0 .9-7.2v-11.7a35.5 35.5 0 0 0-1.1-9.2 7.1 7.1 0 0 0-6.9-5.2c-4.2-.1-5.9 2.1-9.1 5.8v-18.6zm-29.9 12.8v28.5a18.7 18.7 0 0 0 1 6.5 5.7 5.7 0 0 0 5.6 3.4c3.1 0 7.1-2.2 10.5-5.9v5.9h8.5v-38.4h-8.5v26.7c-1.9 2.5-4.6 4.4-6.3 4.4a2 2 0 0 1-2.2-1.7v-29.4zm72.7 0c-4.3 0-7.7 1.3-10.1 3.9s-2.8 4.9-2.8 8.9V171c0 4 1.1 6.8 2.9 8.6s5.8 3.9 10.2 3.9 7.9-1.4 10.2-4.1a7.8 7.8 0 0 0 1.9-4 32.4 32.4 0 0 0 .4-4.7h-8.6v3.4c0 2-1.9 3.6-4.2 3.6s-4.3-1.6-4.3-3.6v-7.7h17.1v-8.6c0-4-1-6.9-2.8-8.8s-5.7-3.9-9.9-3.9zm-.1 6.1c2.3 0 4.2 1.6 4.2 3.6v5.7h-8.5v-5.7c0-2 1.9-3.6 4.3-3.6zm-29 1.3c2.4 0 3.4 1.4 3.4 5.9v11.7c0 4.5-1 6-3.4 6a9.3 9.3 0 0 1-5.2-2.2v-18.7c1.4-1.3 3.9-2.7 5.2-2.7z"/></symbol><symbol id="comment" viewBox="0 0 256 256"><path d="M53 217.7a10.3 10.3 0 0 1-7.2-3.1 11.8 11.8 0 0 1-2.8-11.8l11.9-40.4a71.9 71.9 0 0 1-16.6-45.6c0-21.4 9.6-41.3 27.1-56.1s38.8-21.9 62.1-21.9 45.5 7.8 62.2 21.9 27.1 34.7 27.1 56.1-9.6 41.3-27.1 56.1-38.8 22-62.2 22a112.2 112.2 0 0 1-16.4-1.3l-54.2 23.3a10.5 10.5 0 0 1-3.9.8zm74.5-156.1c-37.5 0-68.1 24.8-68.1 55.2 0 12.5 5.1 24.4 14.8 34.3a12.1 12.1 0 0 1 2.8 11.7l-7.1 23.9 36.2-15.5a9.3 9.3 0 0 1 5.7-.6 81.9 81.9 0 0 0 15.7 1.5c37.6 0 68.2-24.8 68.2-55.3s-30.6-55.2-68.2-55.2z"/><ellipse cx="91.9" cy="115.8" rx="15" ry="16.2"/><ellipse cx="127.5" cy="115.8" rx="15" ry="16.2"/><ellipse cx="163.2" cy="115.8" rx="15" ry="16.2"/></symbol><symbol id="hamburger" viewBox="0 0 256 256"><path d="M199.7 145.9H56.4a17.9 17.9 0 1 1 0-35.8h143.3a17.9 17.9 0 1 1 0 35.8zm0-71.7H56.4a17.9 17.9 0 1 1 0-35.8h143.3a17.9 17.9 0 1 1 0 35.8zm0 143.4H56.4a17.9 17.9 0 1 1 0-35.8h143.3a17.9 17.9 0 1 1 0 35.8z"/></symbol><symbol id="expand" viewBox="0 0 256 256"><path d="M143.4 65.8h46.8v46.8h27.4V65.5a27.2 27.2 0 0 0-27.1-27.1h-47.1zm-77.6 46.8V65.8h46.8V38.4H65.5a27.2 27.2 0 0 0-27.1 27.1v47.1zm124.4 30.8v46.8h-46.8v27.4h47.1a27.2 27.2 0 0 0 27.1-27.1v-47.1zm-77.6 46.8H65.8v-46.8H38.4v47.1a27.2 27.2 0 0 0 27.1 27.1h47.1z"/></symbol><symbol id="facebook" viewBox="0 0 256 256"><path d="M217.6 198.4a19.1 19.1 0 0 1-19.2 19.2h-34v-70.8h24l3.6-27.2h-27.6v-17.2q0-6.5 2.4-9.6t10.8-3.6H192v-24a150.4 150.4 0 0 0-20.8-1.2c-10.7 0-19.1 3.1-25.4 9.4s-9.4 15-9.4 26.2v20H112v27.2h24.4v70.8H57.6a19.1 19.1 0 0 1-19.2-19.2V57.6a19.1 19.1 0 0 1 19.2-19.2h140.8a19.1 19.1 0 0 1 19.2 19.2z"/></symbol><symbol id="instagram" viewBox="0 0 256 256"><path d="M217.2 90.8c.3 7.5.4 19.9.4 37.2s-.2 29.8-.6 37.4a74.1 74.1 0 0 1-3.4 19.8 46.8 46.8 0 0 1-28.4 28.4 74.1 74.1 0 0 1-19.8 3.4c-7.6.4-20.1.6-37.4.6s-29.8-.2-37.4-.6a63.4 63.4 0 0 1-19.8-3.8 41.2 41.2 0 0 1-17.4-10.6 45.3 45.3 0 0 1-11-17.4 74.1 74.1 0 0 1-3.4-19.8c-.4-7.6-.6-20.1-.6-37.4s.2-29.8.6-37.4a74.1 74.1 0 0 1 3.4-19.8 46.8 46.8 0 0 1 28.4-28.4A74.1 74.1 0 0 1 90.6 39c7.6-.4 20.1-.6 37.4-.6s29.8.2 37.4.6a74.1 74.1 0 0 1 19.8 3.4 46.8 46.8 0 0 1 28.4 28.4 77.8 77.8 0 0 1 3.6 20zm-19.2 90c1.6-4.5 2.7-11.7 3.2-21.6.3-5.9.4-14.1.4-24.8v-12.8c0-10.9-.1-19.2-.4-24.8-.5-10.2-1.6-17.4-3.2-21.6A28.7 28.7 0 0 0 180.8 58c-4.2-1.6-11.4-2.7-21.6-3.2-5.9-.3-14.1-.4-24.8-.4h-12.8c-10.7 0-18.9.1-24.8.4-9.9.5-17.1 1.6-21.6 3.2A28.7 28.7 0 0 0 58 75.2c-1.6 4.2-2.7 11.4-3.2 21.6-.3 5.9-.4 14.1-.4 24.8v12.8c0 10.7.1 18.9.4 24.8.5 9.9 1.6 17.1 3.2 21.6A30 30 0 0 0 75.2 198c4.5 1.6 11.7 2.7 21.6 3.2 5.9.3 14.1.4 24.8.4h12.8c10.9 0 19.2-.1 24.8-.4 10.2-.5 17.4-1.6 21.6-3.2a30 30 0 0 0 17.2-17.2zM128 82a44.1 44.1 0 0 1 23 6.2 45.1 45.1 0 0 1 16.8 16.8 45.8 45.8 0 0 1 0 46 45.1 45.1 0 0 1-16.8 16.8 45.8 45.8 0 0 1-46 0A45.1 45.1 0 0 1 88.2 151a45.8 45.8 0 0 1 0-46A45.1 45.1 0 0 1 105 88.2a44.1 44.1 0 0 1 23-6.2zm0 76a30 30 0 0 0 30-30 30 30 0 0 0-30-30 30 30 0 0 0-30 30 30 30 0 0 0 30 30zm58.8-78A10.9 10.9 0 0 0 176 69.2 10.9 10.9 0 0 0 165.2 80 10.9 10.9 0 0 0 176 90.8a9.8 9.8 0 0 0 7.4-3.2 12.3 12.3 0 0 0 3.4-7.6z"/></symbol><symbol id="return" viewBox="0 0 256 256"><path d="M128 58.2A69.8 69.8 0 1 1 58.2 128 69.9 69.9 0 0 1 128 58.2m0-19.8a89.6 89.6 0 1 0 89.6 89.6A89.6 89.6 0 0 0 128 38.4z"/><path d="M165.3 119.1L128 81.8l-37.3 37.3 14 14 12.8-12.8v53.9h21v-53.9l12.8 12.8 14-14z"/></symbol><symbol id="twitter" viewBox="0 0 256 256"><path d="M198.4 38.4a19.1 19.1 0 0 1 19.2 19.2v140.8a19.1 19.1 0 0 1-19.2 19.2H57.6a19.1 19.1 0 0 1-19.2-19.2V57.6a19.1 19.1 0 0 1 19.2-19.2zM178.8 102A56.9 56.9 0 0 0 192 88.4a53.5 53.5 0 0 1-15.2 4A27 27 0 0 0 188.4 78a49.9 49.9 0 0 1-16.8 6.4 24.3 24.3 0 0 0-18.8-8.4 26.1 26.1 0 0 0-25.6 32.4 71.7 71.7 0 0 1-30.4-8.2 79.2 79.2 0 0 1-24-19.4 24.7 24.7 0 0 0-3.6 13 26.4 26.4 0 0 0 3.2 12.8 25.6 25.6 0 0 0 8.8 9.4 27.9 27.9 0 0 1-12-3.6v.4a25.4 25.4 0 0 0 6 16.8 26.5 26.5 0 0 0 15.2 9.2 36.6 36.6 0 0 1-12 .4 24.7 24.7 0 0 0 9.2 13 25.2 25.2 0 0 0 15.2 5 51.2 51.2 0 0 1-32.4 11.2H64a74.5 74.5 0 0 0 40.4 11.6c15.2 0 28.8-3.9 40.8-11.6a71.7 71.7 0 0 0 25.2-28.4 76.9 76.9 0 0 0 8.4-34.8z"/></symbol><symbol id="share" viewBox="0 0 256 256"><path d="M177.8 148.1a34.8 34.8 0 0 0-26.2 11.9l-38.7-15.8v-2a34.7 34.7 0 0 0-1.5-10.3l41.4-30.3a34.7 34.7 0 1 0 20-63.2A34.8 34.8 0 0 0 138 73.1a35.9 35.9 0 0 0 1.6 10.4l-41.5 30.2a34.1 34.1 0 0 0-19.9-6.3 34.8 34.8 0 1 0 26.2 57.6l38.7 15.8v2.1a34.8 34.8 0 1 0 34.7-34.8z"/></symbol><symbol id="youtube" viewBox="0 0 256 256"><path d="M59.7 38.4a21.4 21.4 0 0 0-21.3 21.3v136.6a21.4 21.4 0 0 0 21.3 21.3h136.6a21.4 21.4 0 0 0 21.3-21.3V59.7a21.4 21.4 0 0 0-21.3-21.3zm25.6 17.1h10.3l6.8 17 6.8-17h10.3l-12.8 29.8v17.1h-8.6V85.3c-2.5-6.9-11-25.5-12.8-29.8zM128 68.3c3.8 0 7.6 1.1 9.9 4s2.9 5.5 2.9 9.9v6.3c0 4.4-.8 7.5-2.6 9.6a13.7 13.7 0 0 1-10.2 4.3 13.4 13.4 0 0 1-10.1-4.3c-1.8-2.1-2.7-5.2-2.7-9.6v-6.2c0-4.5 1-7.9 2.9-10s5.6-4 9.9-4zm17.1 0h8.5v25.6c.2 1.1 1.4 1.6 2.6 1.6s4-2 5.9-4.3V68.3h8.6v34.1h-8.6v-5.9c-3.4 3.4-6.4 5.9-10.2 5.8s-4.8-1.1-5.8-3.2a13.6 13.6 0 0 1-1-5.9zM128 75.2a5.1 5.1 0 0 0-1.7.3 4.1 4.1 0 0 0-1.3 1 3.8 3.8 0 0 0-.9 1.3 5.3 5.3 0 0 0-.4 1.7v12a4.4 4.4 0 0 0 1.3 3.1 3.8 3.8 0 0 0 1.3.9 3.8 3.8 0 0 0 3.4 0 4.3 4.3 0 0 0 2.6-4v-12a4.3 4.3 0 0 0-4.3-4.3zm0 40s28.7 0 47.8 1.4c2.7.3 8.5.3 13.7 5.6s5.4 13.3 5.4 13.3a90.6 90.6 0 0 1 1.4 17.3v10.1a90.6 90.6 0 0 1-1.4 17.3s-1.3 9.2-5.4 13.3-11 5.3-13.7 5.6c-19.1 1.4-47.8 1.4-47.8 1.4s-35.5-.3-46.4-1.3c-3.1-.6-9.9-.4-15.1-5.7s-5.4-13.3-5.4-13.3a90.6 90.6 0 0 1-1.4-17.3v-10.1a90.6 90.6 0 0 1 1.4-17.3s1.3-9.2 5.4-13.3 11-5.3 13.7-5.6c19.1-1.4 47.8-1.4 47.8-1.4zm-55.5 17.1v8.4h8.6v42.8h8.5v-42.8h8.5v-8.4zm55.5 0v51.2h8.5v-5.4c2.7 3.4 6.2 5.4 9.1 5.4a7.3 7.3 0 0 0 7.1-5.1 22.8 22.8 0 0 0 .9-7.2v-11.7a35.5 35.5 0 0 0-1.1-9.2 7.1 7.1 0 0 0-6.9-5.2c-4.2-.1-5.9 2.1-9.1 5.8v-18.6zm-29.9 12.8v28.5a18.7 18.7 0 0 0 1 6.5 5.7 5.7 0 0 0 5.6 3.4c3.1 0 7.1-2.2 10.5-5.9v5.9h8.5v-38.4h-8.5v26.7c-1.9 2.5-4.6 4.4-6.3 4.4a2 2 0 0 1-2.2-1.7v-29.4zm72.7 0c-4.3 0-7.7 1.3-10.1 3.9s-2.8 4.9-2.8 8.9V171c0 4 1.1 6.8 2.9 8.6s5.8 3.9 10.2 3.9 7.9-1.4 10.2-4.1a7.8 7.8 0 0 0 1.9-4 32.4 32.4 0 0 0 .4-4.7h-8.6v3.4c0 2-1.9 3.6-4.2 3.6s-4.3-1.6-4.3-3.6v-7.7h17.1v-8.6c0-4-1-6.9-2.8-8.8s-5.7-3.9-9.9-3.9zm-.1 6.1c2.3 0 4.2 1.6 4.2 3.6v5.7h-8.5v-5.7c0-2 1.9-3.6 4.3-3.6zm-29 1.3c2.4 0 3.4 1.4 3.4 5.9v11.7c0 4.5-1 6-3.4 6a9.3 9.3 0 0 1-5.2-2.2v-18.7c1.4-1.3 3.9-2.7 5.2-2.7z"/></symbol><symbol id="comment" viewBox="0 0 256 256"><path d="M53 217.7a10.3 10.3 0 0 1-7.2-3.1 11.8 11.8 0 0 1-2.8-11.8l11.9-40.4a71.9 71.9 0 0 1-16.6-45.6c0-21.4 9.6-41.3 27.1-56.1s38.8-21.9 62.1-21.9 45.5 7.8 62.2 21.9 27.1 34.7 27.1 56.1-9.6 41.3-27.1 56.1-38.8 22-62.2 22a112.2 112.2 0 0 1-16.4-1.3l-54.2 23.3a10.5 10.5 0 0 1-3.9.8zm74.5-156.1c-37.5 0-68.1 24.8-68.1 55.2 0 12.5 5.1 24.4 14.8 34.3a12.1 12.1 0 0 1 2.8 11.7l-7.1 23.9 36.2-15.5a9.3 9.3 0 0 1 5.7-.6 81.9 81.9 0 0 0 15.7 1.5c37.6 0 68.2-24.8 68.2-55.3s-30.6-55.2-68.2-55.2z"/><ellipse cx="91.9" cy="115.8" rx="15" ry="16.2"/><ellipse cx="127.5" cy="115.8" rx="15" ry="16.2"/><ellipse cx="163.2" cy="115.8" rx="15" ry="16.2"/></symbol><symbol id="facebook" viewBox="0 0 256 256"><path d="M217.6 198.4a19.1 19.1 0 0 1-19.2 19.2h-34v-70.8h24l3.6-27.2h-27.6v-17.2q0-6.5 2.4-9.6t10.8-3.6H192v-24a150.4 150.4 0 0 0-20.8-1.2c-10.7 0-19.1 3.1-25.4 9.4s-9.4 15-9.4 26.2v20H112v27.2h24.4v70.8H57.6a19.1 19.1 0 0 1-19.2-19.2V57.6a19.1 19.1 0 0 1 19.2-19.2h140.8a19.1 19.1 0 0 1 19.2 19.2z"/></symbol><symbol id="expand" viewBox="0 0 256 256"><path d="M143.4 65.8h46.8v46.8h27.4V65.5a27.2 27.2 0 0 0-27.1-27.1h-47.1zm-77.6 46.8V65.8h46.8V38.4H65.5a27.2 27.2 0 0 0-27.1 27.1v47.1zm124.4 30.8v46.8h-46.8v27.4h47.1a27.2 27.2 0 0 0 27.1-27.1v-47.1zm-77.6 46.8H65.8v-46.8H38.4v47.1a27.2 27.2 0 0 0 27.1 27.1h47.1z"/></symbol><symbol id="hamburger" viewBox="0 0 256 256"><path d="M199.7 145.9H56.4a17.9 17.9 0 1 1 0-35.8h143.3a17.9 17.9 0 1 1 0 35.8zm0-71.7H56.4a17.9 17.9 0 1 1 0-35.8h143.3a17.9 17.9 0 1 1 0 35.8zm0 143.4H56.4a17.9 17.9 0 1 1 0-35.8h143.3a17.9 17.9 0 1 1 0 35.8z"/></symbol><symbol id="instagram" viewBox="0 0 256 256"><path d="M217.2 90.8c.3 7.5.4 19.9.4 37.2s-.2 29.8-.6 37.4a74.1 74.1 0 0 1-3.4 19.8 46.8 46.8 0 0 1-28.4 28.4 74.1 74.1 0 0 1-19.8 3.4c-7.6.4-20.1.6-37.4.6s-29.8-.2-37.4-.6a63.4 63.4 0 0 1-19.8-3.8 41.2 41.2 0 0 1-17.4-10.6 45.3 45.3 0 0 1-11-17.4 74.1 74.1 0 0 1-3.4-19.8c-.4-7.6-.6-20.1-.6-37.4s.2-29.8.6-37.4a74.1 74.1 0 0 1 3.4-19.8 46.8 46.8 0 0 1 28.4-28.4A74.1 74.1 0 0 1 90.6 39c7.6-.4 20.1-.6 37.4-.6s29.8.2 37.4.6a74.1 74.1 0 0 1 19.8 3.4 46.8 46.8 0 0 1 28.4 28.4 77.8 77.8 0 0 1 3.6 20zm-19.2 90c1.6-4.5 2.7-11.7 3.2-21.6.3-5.9.4-14.1.4-24.8v-12.8c0-10.9-.1-19.2-.4-24.8-.5-10.2-1.6-17.4-3.2-21.6A28.7 28.7 0 0 0 180.8 58c-4.2-1.6-11.4-2.7-21.6-3.2-5.9-.3-14.1-.4-24.8-.4h-12.8c-10.7 0-18.9.1-24.8.4-9.9.5-17.1 1.6-21.6 3.2A28.7 28.7 0 0 0 58 75.2c-1.6 4.2-2.7 11.4-3.2 21.6-.3 5.9-.4 14.1-.4 24.8v12.8c0 10.7.1 18.9.4 24.8.5 9.9 1.6 17.1 3.2 21.6A30 30 0 0 0 75.2 198c4.5 1.6 11.7 2.7 21.6 3.2 5.9.3 14.1.4 24.8.4h12.8c10.9 0 19.2-.1 24.8-.4 10.2-.5 17.4-1.6 21.6-3.2a30 30 0 0 0 17.2-17.2zM128 82a44.1 44.1 0 0 1 23 6.2 45.1 45.1 0 0 1 16.8 16.8 45.8 45.8 0 0 1 0 46 45.1 45.1 0 0 1-16.8 16.8 45.8 45.8 0 0 1-46 0A45.1 45.1 0 0 1 88.2 151a45.8 45.8 0 0 1 0-46A45.1 45.1 0 0 1 105 88.2a44.1 44.1 0 0 1 23-6.2zm0 76a30 30 0 0 0 30-30 30 30 0 0 0-30-30 30 30 0 0 0-30 30 30 30 0 0 0 30 30zm58.8-78A10.9 10.9 0 0 0 176 69.2 10.9 10.9 0 0 0 165.2 80 10.9 10.9 0 0 0 176 90.8a9.8 9.8 0 0 0 7.4-3.2 12.3 12.3 0 0 0 3.4-7.6z"/></symbol><symbol id="return" viewBox="0 0 256 256"><path d="M128 58.2A69.8 69.8 0 1 1 58.2 128 69.9 69.9 0 0 1 128 58.2m0-19.8a89.6 89.6 0 1 0 89.6 89.6A89.6 89.6 0 0 0 128 38.4z"/><path d="M165.3 119.1L128 81.8l-37.3 37.3 14 14 12.8-12.8v53.9h21v-53.9l12.8 12.8 14-14z"/></symbol><symbol id="twitter" viewBox="0 0 256 256"><path d="M198.4 38.4a19.1 19.1 0 0 1 19.2 19.2v140.8a19.1 19.1 0 0 1-19.2 19.2H57.6a19.1 19.1 0 0 1-19.2-19.2V57.6a19.1 19.1 0 0 1 19.2-19.2zM178.8 102A56.9 56.9 0 0 0 192 88.4a53.5 53.5 0 0 1-15.2 4A27 27 0 0 0 188.4 78a49.9 49.9 0 0 1-16.8 6.4 24.3 24.3 0 0 0-18.8-8.4 26.1 26.1 0 0 0-25.6 32.4 71.7 71.7 0 0 1-30.4-8.2 79.2 79.2 0 0 1-24-19.4 24.7 24.7 0 0 0-3.6 13 26.4 26.4 0 0 0 3.2 12.8 25.6 25.6 0 0 0 8.8 9.4 27.9 27.9 0 0 1-12-3.6v.4a25.4 25.4 0 0 0 6 16.8 26.5 26.5 0 0 0 15.2 9.2 36.6 36.6 0 0 1-12 .4 24.7 24.7 0 0 0 9.2 13 25.2 25.2 0 0 0 15.2 5 51.2 51.2 0 0 1-32.4 11.2H64a74.5 74.5 0 0 0 40.4 11.6c15.2 0 28.8-3.9 40.8-11.6a71.7 71.7 0 0 0 25.2-28.4 76.9 76.9 0 0 0 8.4-34.8z"/></symbol><symbol id="share" viewBox="0 0 256 256"><path d="M177.8 148.1a34.8 34.8 0 0 0-26.2 11.9l-38.7-15.8v-2a34.7 34.7 0 0 0-1.5-10.3l41.4-30.3a34.7 34.7 0 1 0 20-63.2A34.8 34.8 0 0 0 138 73.1a35.9 35.9 0 0 0 1.6 10.4l-41.5 30.2a34.1 34.1 0 0 0-19.9-6.3 34.8 34.8 0 1 0 26.2 57.6l38.7 15.8v2.1a34.8 34.8 0 1 0 34.7-34.8z"/></symbol><symbol id="youtube" viewBox="0 0 256 256"><path d="M59.7 38.4a21.4 21.4 0 0 0-21.3 21.3v136.6a21.4 21.4 0 0 0 21.3 21.3h136.6a21.4 21.4 0 0 0 21.3-21.3V59.7a21.4 21.4 0 0 0-21.3-21.3zm25.6 17.1h10.3l6.8 17 6.8-17h10.3l-12.8 29.8v17.1h-8.6V85.3c-2.5-6.9-11-25.5-12.8-29.8zM128 68.3c3.8 0 7.6 1.1 9.9 4s2.9 5.5 2.9 9.9v6.3c0 4.4-.8 7.5-2.6 9.6a13.7 13.7 0 0 1-10.2 4.3 13.4 13.4 0 0 1-10.1-4.3c-1.8-2.1-2.7-5.2-2.7-9.6v-6.2c0-4.5 1-7.9 2.9-10s5.6-4 9.9-4zm17.1 0h8.5v25.6c.2 1.1 1.4 1.6 2.6 1.6s4-2 5.9-4.3V68.3h8.6v34.1h-8.6v-5.9c-3.4 3.4-6.4 5.9-10.2 5.8s-4.8-1.1-5.8-3.2a13.6 13.6 0 0 1-1-5.9zM128 75.2a5.1 5.1 0 0 0-1.7.3 4.1 4.1 0 0 0-1.3 1 3.8 3.8 0 0 0-.9 1.3 5.3 5.3 0 0 0-.4 1.7v12a4.4 4.4 0 0 0 1.3 3.1 3.8 3.8 0 0 0 1.3.9 3.8 3.8 0 0 0 3.4 0 4.3 4.3 0 0 0 2.6-4v-12a4.3 4.3 0 0 0-4.3-4.3zm0 40s28.7 0 47.8 1.4c2.7.3 8.5.3 13.7 5.6s5.4 13.3 5.4 13.3a90.6 90.6 0 0 1 1.4 17.3v10.1a90.6 90.6 0 0 1-1.4 17.3s-1.3 9.2-5.4 13.3-11 5.3-13.7 5.6c-19.1 1.4-47.8 1.4-47.8 1.4s-35.5-.3-46.4-1.3c-3.1-.6-9.9-.4-15.1-5.7s-5.4-13.3-5.4-13.3a90.6 90.6 0 0 1-1.4-17.3v-10.1a90.6 90.6 0 0 1 1.4-17.3s1.3-9.2 5.4-13.3 11-5.3 13.7-5.6c19.1-1.4 47.8-1.4 47.8-1.4zm-55.5 17.1v8.4h8.6v42.8h8.5v-42.8h8.5v-8.4zm55.5 0v51.2h8.5v-5.4c2.7 3.4 6.2 5.4 9.1 5.4a7.3 7.3 0 0 0 7.1-5.1 22.8 22.8 0 0 0 .9-7.2v-11.7a35.5 35.5 0 0 0-1.1-9.2 7.1 7.1 0 0 0-6.9-5.2c-4.2-.1-5.9 2.1-9.1 5.8v-18.6zm-29.9 12.8v28.5a18.7 18.7 0 0 0 1 6.5 5.7 5.7 0 0 0 5.6 3.4c3.1 0 7.1-2.2 10.5-5.9v5.9h8.5v-38.4h-8.5v26.7c-1.9 2.5-4.6 4.4-6.3 4.4a2 2 0 0 1-2.2-1.7v-29.4zm72.7 0c-4.3 0-7.7 1.3-10.1 3.9s-2.8 4.9-2.8 8.9V171c0 4 1.1 6.8 2.9 8.6s5.8 3.9 10.2 3.9 7.9-1.4 10.2-4.1a7.8 7.8 0 0 0 1.9-4 32.4 32.4 0 0 0 .4-4.7h-8.6v3.4c0 2-1.9 3.6-4.2 3.6s-4.3-1.6-4.3-3.6v-7.7h17.1v-8.6c0-4-1-6.9-2.8-8.8s-5.7-3.9-9.9-3.9zm-.1 6.1c2.3 0 4.2 1.6 4.2 3.6v5.7h-8.5v-5.7c0-2 1.9-3.6 4.3-3.6zm-29 1.3c2.4 0 3.4 1.4 3.4 5.9v11.7c0 4.5-1 6-3.4 6a9.3 9.3 0 0 1-5.2-2.2v-18.7c1.4-1.3 3.9-2.7 5.2-2.7z"/></symbol></svg>