<svg xmlns="http://www.w3.org/2000/svg"><symbol id="expand" viewBox="0 0 256 256"><path fill="#231f20" d="M146.1 54.9h55v55h32.2V54.6a31.8 31.8 0 0 0-31.9-31.9h-55.3zm-91.2 55v-55h55V22.7H54.6a31.8 31.8 0 0 0-31.9 31.9v55.3zm146.2 36.2v55h-55v32.2h55.3a31.8 31.8 0 0 0 31.9-31.9v-55.3zm-91.2 55h-55v-55H22.7v55.3a31.8 31.8 0 0 0 31.9 31.9h55.3z"/></symbol><symbol id="expand" viewBox="0 0 256 256"><path fill="#231f20" d="M146.1 54.9h55v55h32.2V54.6a31.8 31.8 0 0 0-31.9-31.9h-55.3zm-91.2 55v-55h55V22.7H54.6a31.8 31.8 0 0 0-31.9 31.9v55.3zm146.2 36.2v55h-55v32.2h55.3a31.8 31.8 0 0 0 31.9-31.9v-55.3zm-91.2 55h-55v-55H22.7v55.3a31.8 31.8 0 0 0 31.9 31.9h55.3z"/></symbol><symbol id="expand" viewBox="0 0 256 256"><path fill="#231f20" d="M146.1 54.9h55v55h32.2V54.6a31.8 31.8 0 0 0-31.9-31.9h-55.3zm-91.2 55v-55h55V22.7H54.6a31.8 31.8 0 0 0-31.9 31.9v55.3zm146.2 36.2v55h-55v32.2h55.3a31.8 31.8 0 0 0 31.9-31.9v-55.3zm-91.2 55h-55v-55H22.7v55.3a31.8 31.8 0 0 0 31.9 31.9h55.3z"/></symbol><symbol id="hamburger-close" viewBox="0 0 256 256"><path fill="#f37050" d="M181.8 92H74.2a18 18 0 1 1 0-36h107.6a18 18 0 0 1 0 36zm0 54H74.2a18 18 0 1 1 0-36h107.6a18 18 0 0 1 0 36zm0 54H74.2a18 18 0 1 1 0-36h107.6a18 18 0 0 1 0 36z"/></symbol><symbol id="hamburger-close" viewBox="0 0 256 256"><path fill="#f37050" d="M181.8 92H74.2a18 18 0 1 1 0-36h107.6a18 18 0 0 1 0 36zm0 54H74.2a18 18 0 1 1 0-36h107.6a18 18 0 0 1 0 36zm0 54H74.2a18 18 0 1 1 0-36h107.6a18 18 0 0 1 0 36z"/></symbol><symbol id="hamburger-open" viewBox="0 0 256 256"><path fill="#fff" d="M181.8 92H74.2a18 18 0 1 1 0-36h107.6a18 18 0 0 1 0 36zm0 54H74.2a18 18 0 1 1 0-36h107.6a18 18 0 0 1 0 36zm0 54H74.2a18 18 0 1 1 0-36h107.6a18 18 0 0 1 0 36z"/></symbol><symbol id="hamburger-close" viewBox="0 0 256 256"><path fill="#f37050" d="M181.8 92H74.2a18 18 0 1 1 0-36h107.6a18 18 0 0 1 0 36zm0 54H74.2a18 18 0 1 1 0-36h107.6a18 18 0 0 1 0 36zm0 54H74.2a18 18 0 1 1 0-36h107.6a18 18 0 0 1 0 36z"/></symbol><symbol id="expand" viewBox="0 0 256 256"><path fill="#231f20" d="M146.1 54.9h55v55h32.2V54.6a31.8 31.8 0 0 0-31.9-31.9h-55.3zm-91.2 55v-55h55V22.7H54.6a31.8 31.8 0 0 0-31.9 31.9v55.3zm146.2 36.2v55h-55v32.2h55.3a31.8 31.8 0 0 0 31.9-31.9v-55.3zm-91.2 55h-55v-55H22.7v55.3a31.8 31.8 0 0 0 31.9 31.9h55.3z"/></symbol><symbol id="hamburger-open" viewBox="0 0 256 256"><path fill="#fff" d="M181.8 92H74.2a18 18 0 1 1 0-36h107.6a18 18 0 0 1 0 36zm0 54H74.2a18 18 0 1 1 0-36h107.6a18 18 0 0 1 0 36zm0 54H74.2a18 18 0 1 1 0-36h107.6a18 18 0 0 1 0 36z"/></symbol><symbol id="share" viewBox="0 0 256 256"><path fill="#231f20" d="M184.9 153a40.2 40.2 0 0 0-30.3 13.7l-44.9-18.3a16.9 16.9 0 0 0 .1-2.3 38.5 38.5 0 0 0-1.8-11.9l48-35a40.2 40.2 0 1 0-17.2-32.9 42.8 42.8 0 0 0 1.8 11.9l-47.9 35a40.2 40.2 0 1 0-23.1 73.1 40.3 40.3 0 0 0 30.3-13.8l44.9 18.3a19.3 19.3 0 0 0-.1 2.4 40.2 40.2 0 1 0 40.2-40.2z"/></symbol><symbol id="expand" viewBox="0 0 256 256"><path fill="#231f20" d="M146.1 54.9h55v55h32.2V54.6a31.8 31.8 0 0 0-31.9-31.9h-55.3zm-91.2 55v-55h55V22.7H54.6a31.8 31.8 0 0 0-31.9 31.9v55.3zm146.2 36.2v55h-55v32.2h55.3a31.8 31.8 0 0 0 31.9-31.9v-55.3zm-91.2 55h-55v-55H22.7v55.3a31.8 31.8 0 0 0 31.9 31.9h55.3z"/></symbol><symbol id="hamburger-close" viewBox="0 0 256 256"><path fill="#f37050" d="M181.8 92H74.2a18 18 0 1 1 0-36h107.6a18 18 0 0 1 0 36zm0 54H74.2a18 18 0 1 1 0-36h107.6a18 18 0 0 1 0 36zm0 54H74.2a18 18 0 1 1 0-36h107.6a18 18 0 0 1 0 36z"/></symbol><symbol id="hamburger-open" viewBox="0 0 256 256"><path fill="#fff" d="M181.8 92H74.2a18 18 0 1 1 0-36h107.6a18 18 0 0 1 0 36zm0 54H74.2a18 18 0 1 1 0-36h107.6a18 18 0 0 1 0 36zm0 54H74.2a18 18 0 1 1 0-36h107.6a18 18 0 0 1 0 36z"/></symbol><symbol id="share" viewBox="0 0 256 256"><path fill="#231f20" d="M184.9 153a40.2 40.2 0 0 0-30.3 13.7l-44.9-18.3a16.9 16.9 0 0 0 .1-2.3 38.5 38.5 0 0 0-1.8-11.9l48-35a40.2 40.2 0 1 0-17.2-32.9 42.8 42.8 0 0 0 1.8 11.9l-47.9 35a40.2 40.2 0 1 0-23.1 73.1 40.3 40.3 0 0 0 30.3-13.8l44.9 18.3a19.3 19.3 0 0 0-.1 2.4 40.2 40.2 0 1 0 40.2-40.2z"/></symbol><symbol id="comment" viewBox="0 0 256 256"><path fill="#231f20" d="M43.3 234.1a12.1 12.1 0 0 1-8.2-3.2 11.9 11.9 0 0 1-3.2-12.4l13.6-42.6c-12.3-13.8-19-30.6-19-47.9 0-22.5 11-43.5 30.8-59s44.1-23.1 70.7-23.1 51.7 8.2 70.7 23.1 30.8 36.5 30.8 59-11 43.5-30.8 59-44.1 23.1-70.7 23.1a127.3 127.3 0 0 1-18.6-1.3l-61.6 24.5a11.9 11.9 0 0 1-4.5.8zM128 69.9c-42.7 0-77.5 26-77.5 58.1 0 13.2 5.9 25.6 16.9 36a12.1 12.1 0 0 1 3.1 12.4l-8 25.2 41.1-16.4a12 12 0 0 1 6.5-.6 106.3 106.3 0 0 0 17.9 1.5c42.7 0 77.5-26 77.5-58.1S170.7 69.9 128 69.9z"/><circle cx="87.5" cy="126.9" r="17" fill="#231f20"/><circle cx="128" cy="126.9" r="17" fill="#231f20"/><circle cx="168.5" cy="126.9" r="17" fill="#231f20"/></symbol></svg>